<svg width="16" height="16" viewBox="0 0 16 16" fill="none" xmlns="http://www.w3.org/2000/svg">
<path d="M7.50001 3.99989V13.2732C7.50001 13.7466 7.02001 14.0732 6.58668 13.8932C5.34668 13.3732 3.80668 12.9199 2.71334 12.7732L2.50668 12.7466C1.86001 12.6666 1.33334 12.0732 1.33334 11.4266V3.49989C1.33334 2.69989 1.98001 2.05322 2.78001 2.05322H2.82668C4.08001 2.15989 5.92668 2.74656 7.14668 3.40656C7.36668 3.52656 7.50001 3.74656 7.50001 3.99989Z" fill="#35489B"/>
<path d="M13.22 2.05322H13.18C13.02 2.06656 12.8467 2.08656 12.6667 2.11989C11.8467 2.25322 10.8733 2.53322 10 2.87989C9.58667 3.04656 9.2 3.22656 8.86 3.40656C8.64 3.52656 8.5 3.75322 8.5 3.99989V13.2732C8.5 13.7466 8.98 14.0732 9.41333 13.8932C10.6533 13.3732 12.1933 12.9199 13.2867 12.7732L13.4933 12.7466C14.14 12.6666 14.6667 12.0732 14.6667 11.4266V3.49989C14.6667 2.69989 14.02 2.05322 13.22 2.05322ZM12.8467 9.15322C12.8467 9.41322 12.66 9.52656 12.4333 9.39989L11.7267 9.00656C11.6533 8.96656 11.5333 8.96656 11.4533 9.00656L10.7467 9.39989C10.52 9.52656 10.3333 9.41322 10.3333 9.15322V7.10656C10.3333 6.79989 10.5867 6.54656 10.8933 6.54656H12.2933C12.6 6.54656 12.8533 6.79989 12.8533 7.10656V9.15322H12.8467Z" fill="#35489B"/>
</svg>
