<svg width="104" height="53" viewBox="0 0 104 53" fill="none" xmlns="http://www.w3.org/2000/svg">
<g id="Group 8954">
<g id="Logo + Watermark">
<path id="Vector" d="M32.673 51.3702C32.2338 51.4776 31.7836 51.5345 31.3312 51.5395C29.6997 51.5395 28.5759 50.6188 28.5759 48.8756C28.5759 47.3184 29.4603 46.0545 31.2611 46.0545C31.8137 46.0518 32.3623 46.1481 32.8804 46.3387L32.673 47.3849C32.2517 47.1933 31.7948 47.0903 31.3312 47.0826C30.2288 47.0826 29.8064 47.8219 29.8064 48.9255C29.8064 50.3134 30.8631 50.519 31.4593 50.519C31.9349 50.4917 32.4054 50.4074 32.8606 50.2681L32.673 51.3702Z" fill="#35489B"/>
<path id="Vector_2" d="M36.1282 49.571C36.1282 48.3978 35.657 48.3419 35.3475 48.3419C35.0379 48.3419 34.5668 48.3978 34.5668 49.571C34.5668 50.7442 35.0364 50.8002 35.3475 50.8002C35.6585 50.8002 36.1282 50.7427 36.1282 49.571ZM33.4644 49.571C33.4644 47.9443 34.3152 47.6252 35.3475 47.6252C36.3798 47.6252 37.2291 47.9654 37.2291 49.571C37.2291 51.2658 36.3005 51.5168 35.3475 51.5168C34.3945 51.5168 33.4644 51.2779 33.4644 49.571Z" fill="#35489B"/>
<path id="Vector_3" d="M39.6964 51.3702C39.4183 51.4922 39.116 51.5501 38.812 51.5395C38.5955 51.5395 38.0664 51.4503 38.0664 50.835V46.1482H39.146V50.5961C39.146 50.7337 39.2146 50.7896 39.364 50.7896C39.4378 50.7872 39.511 50.776 39.5821 50.7564L39.6964 51.3702Z" fill="#35489B"/>
<path id="Vector_4" d="M41.8659 51.3702C41.5878 51.4921 41.2854 51.55 40.9815 51.5395C40.7635 51.5395 40.2344 51.4503 40.2344 50.835V46.1482H41.3139V50.5961C41.3139 50.7337 41.3825 50.7896 41.5335 50.7896C41.6068 50.7872 41.6795 50.776 41.75 50.7564L41.8659 51.3702Z" fill="#35489B"/>
<path id="Vector_5" d="M44.5852 49.1613C44.6096 48.8997 44.6096 48.3192 43.9997 48.3192C43.53 48.3192 43.3577 48.6836 43.3577 49.1613H44.5852ZM45.4345 51.358C45.0089 51.4756 44.5679 51.5292 44.1262 51.5168C42.5892 51.5168 42.2568 50.6747 42.2568 49.627C42.2568 48.7395 42.5542 47.6252 43.9997 47.6252C45.2973 47.6252 45.6983 48.4099 45.6983 49.32C45.6936 49.4811 45.6747 49.6415 45.6419 49.7993H43.3547C43.3425 50.2317 43.4111 50.7321 44.3306 50.7321C44.7661 50.7495 45.2004 50.6759 45.6053 50.5159L45.4345 51.358Z" fill="#35489B"/>
<path id="Vector_6" d="M48.9348 48.422C48.72 48.3739 48.5009 48.3471 48.2807 48.3419C47.8903 48.3419 47.4542 48.4568 47.4542 49.4229C47.4542 50.3103 47.6951 50.5613 48.119 50.5613C48.7396 50.5613 48.9348 50.2589 48.9348 49.6391V48.422ZM48.9348 51.0285C48.6588 51.2326 48.395 51.4034 47.7409 51.4034C46.9373 51.4034 46.3518 50.7881 46.3518 49.4697C46.3518 48.2738 47.041 47.6253 48.1541 47.6253C48.7805 47.6241 49.4049 47.6962 50.0144 47.8399V50.7321C50.0144 52.8034 49.13 52.9999 48.0047 52.9999C47.4501 52.9956 46.8998 52.9032 46.3747 52.7263L46.5821 51.9069C47.0169 52.078 47.479 52.1707 47.9467 52.1805C48.3493 52.1805 48.9348 52.1352 48.9348 51.349V51.0285Z" fill="#35489B"/>
<path id="Vector_7" d="M53.159 49.1613C53.1819 48.8997 53.1819 48.3192 52.5735 48.3192C52.1024 48.3192 51.9301 48.6836 51.9301 49.1613H53.159ZM54.0084 51.358C53.5828 51.4756 53.1417 51.5292 52.7001 51.5168C51.1616 51.5168 50.8276 50.6747 50.8276 49.627C50.8276 48.7395 51.1326 47.6252 52.5735 47.6252C53.8711 47.6252 54.2721 48.4099 54.2721 49.32C54.2667 49.4811 54.2478 49.6414 54.2157 49.7993H51.9285C51.9179 50.2317 51.9865 50.7321 52.9044 50.7321C53.3399 50.7495 53.7742 50.6759 54.1791 50.5159L54.0084 51.358Z" fill="#35489B"/>
<path id="Vector_8" d="M54.9721 50.5387C55.2854 50.6716 55.6199 50.7484 55.9602 50.7655C56.2926 50.7655 56.6707 50.7096 56.6707 50.4027C56.6707 49.7072 54.9264 49.9688 54.9264 48.661C54.9264 47.8521 55.7406 47.6238 56.4755 47.6238C56.8658 47.6214 57.2538 47.6832 57.6237 47.8068L57.4514 48.6141C57.1809 48.4623 56.8777 48.3768 56.567 48.3647C56.166 48.3647 55.9815 48.4448 55.9815 48.667C55.9815 49.2234 57.7259 49.042 57.7259 50.3633C57.7259 51.08 57.0382 51.5229 56.166 51.5229C55.7022 51.5415 55.2385 51.4838 54.7937 51.3521L54.9721 50.5387Z" fill="#35489B"/>
<path id="Vector_9" d="M62.4331 49.571C62.4331 48.3978 61.9619 48.3419 61.6524 48.3419C61.3429 48.3419 60.8717 48.3978 60.8717 49.571C60.8717 50.7442 61.3413 50.8002 61.6524 50.8002C61.9635 50.8002 62.4331 50.7427 62.4331 49.571ZM59.7693 49.571C59.7693 47.9443 60.6186 47.6252 61.6524 47.6252C62.6618 47.6252 63.534 47.9654 63.534 49.571C63.534 51.2658 62.6054 51.5168 61.6524 51.5168C60.6994 51.5168 59.7769 51.2779 59.7769 49.571" fill="#35489B"/>
<path id="Vector_10" d="M64.5555 51.461V48.4221H63.9578L64.1194 47.6828H64.5555V47.3517C64.5555 46.6926 64.7949 45.9911 65.8409 45.9911C66.155 45.9888 66.4677 46.0316 66.7695 46.118L66.5972 46.8906C66.431 46.8346 66.2572 46.804 66.0818 46.7999C65.7479 46.7999 65.6244 46.8906 65.6244 47.2535V47.6753H66.4752V48.4146H65.6244V51.4534L64.5555 51.461Z" fill="#35489B"/>
<path id="Vector_11" d="M68.6963 51.461V46.1453H72.1179L71.9456 47.1355H69.8902V48.2513H71.7733L71.6117 49.2401H69.8902V50.4707H72.1179L71.9456 51.461H68.6963Z" fill="#35489B"/>
<path id="Vector_12" d="M75.1358 51.461L74.4131 50.117L73.6903 51.461H72.5071L73.6781 49.5031L72.6336 47.6829H73.7925L74.4131 48.9226L75.0321 47.6829H76.1803L75.148 49.5031L76.3191 51.461H75.1358Z" fill="#35489B"/>
<path id="Vector_13" d="M79.4756 51.3701C79.115 51.4826 78.7391 51.5397 78.361 51.5394C77.4461 51.5394 76.5815 50.9936 76.5815 49.5377C76.5815 48.3871 77.2936 47.6252 78.5333 47.6252C78.9204 47.6174 79.3057 47.6789 79.6708 47.8066L79.4969 48.626C79.2259 48.5061 78.9323 48.4443 78.6354 48.4446C77.8563 48.4446 77.684 49.0493 77.684 49.5709C77.684 50.1969 77.8685 50.7094 78.7391 50.7094C79.0497 50.7017 79.3577 50.6508 79.654 50.5582L79.4756 51.3701Z" fill="#35489B"/>
<path id="Vector_14" d="M82.366 49.1613C82.3889 48.8997 82.3889 48.3192 81.7805 48.3192C81.3093 48.3192 81.137 48.6836 81.137 49.1613H82.366ZM83.2153 51.358C82.7897 51.4756 82.3487 51.5292 81.9071 51.5168C80.3685 51.5168 80.0361 50.6747 80.0361 49.627C80.0361 48.7395 80.3411 47.6252 81.7805 47.6252C83.0781 47.6252 83.4806 48.4099 83.4806 49.32C83.4746 49.4811 83.4552 49.6414 83.4227 49.7993H81.1355C81.1248 50.2317 81.1935 50.7321 82.1129 50.7321C82.5479 50.7496 82.9817 50.6759 83.3861 50.5159L83.2153 51.358Z" fill="#35489B"/>
<path id="Vector_15" d="M85.913 51.3702C85.6349 51.4921 85.3325 51.55 85.0286 51.5395C84.8106 51.5395 84.2815 51.4503 84.2815 50.835V46.1482H85.361V50.5961C85.361 50.7337 85.4297 50.7896 85.5791 50.7896C85.6529 50.7873 85.7261 50.7761 85.7971 50.7564L85.913 51.3702Z" fill="#35489B"/>
<path id="Vector_16" d="M88.0812 51.3702C87.8031 51.4922 87.5007 51.5501 87.1968 51.5395C86.9788 51.5395 86.4512 51.4503 86.4512 50.835V46.1482H87.5277V50.5961C87.5277 50.7337 87.5963 50.7896 87.7457 50.7896C87.8195 50.7872 87.8927 50.776 87.9638 50.7564L88.0812 51.3702Z" fill="#35489B"/>
<path id="Vector_17" d="M90.8016 49.1613C90.8244 48.8997 90.8244 48.3192 90.216 48.3192C89.7449 48.3192 89.5741 48.6836 89.5741 49.1613H90.8016ZM91.6448 51.358C91.2191 51.4755 90.7781 51.529 90.3365 51.5168C88.798 51.5168 88.4656 50.6747 88.4656 49.627C88.4656 48.7395 88.7705 47.6252 90.2099 47.6252C91.506 47.6252 91.9086 48.4099 91.9086 49.32C91.9031 49.4811 91.8842 49.6414 91.8521 49.7993H89.5649C89.5527 50.2317 89.6214 50.7321 90.5393 50.7321C90.9748 50.7497 91.4092 50.676 91.814 50.5159L91.6448 51.358Z" fill="#35489B"/>
<path id="Vector_18" d="M96.7342 51.3702C96.4605 51.4922 96.162 51.5502 95.8621 51.5395C95.6333 51.5395 95.0997 51.4503 95.0997 50.835V49.1054C95.0997 48.6035 95.0417 48.5233 94.7215 48.5233C94.4806 48.5233 94.0216 48.7743 93.7685 48.9678V51.4609H92.689V47.6812H93.7792V48.1015C94.0842 47.8732 94.5141 47.6238 95.0082 47.6238C95.7431 47.6238 96.1899 47.7825 96.1899 48.8182V50.5931C96.1867 50.6193 96.1895 50.6458 96.1982 50.6707C96.2069 50.6957 96.2212 50.7183 96.24 50.7369C96.2588 50.7556 96.2816 50.7697 96.3068 50.7783C96.3319 50.787 96.3587 50.7898 96.3851 50.7866C96.4667 50.7891 96.5482 50.7779 96.626 50.7533L96.7342 51.3702Z" fill="#35489B"/>
<path id="Vector_19" d="M99.9946 51.3701C99.634 51.4827 99.2581 51.5398 98.88 51.5394C97.9742 51.5394 97.1021 50.9936 97.1021 49.5377C97.1021 48.3872 97.8141 47.6252 99.0523 47.6252C99.4394 47.6173 99.8247 47.6788 100.19 47.8066L100.017 48.626C99.7463 48.5063 99.4528 48.4444 99.156 48.4446C98.3753 48.4446 98.2045 49.0494 98.2045 49.571C98.2045 50.1969 98.3875 50.7094 99.2596 50.7094C99.5702 50.7016 99.8782 50.6507 100.175 50.5582L99.9946 51.3701Z" fill="#35489B"/>
<path id="Vector_20" d="M102.887 49.1613C102.908 48.8997 102.908 48.3192 102.301 48.3192C101.83 48.3192 101.658 48.6836 101.658 49.1613H102.887ZM103.736 51.358C103.31 51.4756 102.868 51.5291 102.426 51.5168C100.888 51.5168 100.557 50.6747 100.557 49.627C100.557 48.7395 100.854 47.6252 102.301 47.6252C103.597 47.6252 104 48.4099 104 49.32C103.995 49.4812 103.975 49.6415 103.942 49.7993H101.655C101.644 50.2317 101.713 50.7321 102.631 50.7321C103.066 50.7495 103.5 50.6759 103.905 50.5159L103.736 51.358Z" fill="#35489B"/>
<path id="Vector_21" d="M84.1059 37.2916C84.2307 37.2916 84.3527 37.2549 84.4565 37.186C84.5603 37.1172 84.6411 37.0193 84.6888 36.9049C84.7365 36.7904 84.7489 36.6645 84.7244 36.543C84.7 36.4216 84.6398 36.3101 84.5514 36.2226C84.463 36.1351 84.3505 36.0756 84.228 36.0516C84.1056 36.0277 83.9787 36.0403 83.8634 36.0879C83.7482 36.1355 83.6498 36.2159 83.5807 36.3191C83.5115 36.4222 83.4748 36.5434 83.4751 36.6672C83.4786 36.832 83.5462 36.989 83.6638 37.1054C83.7814 37.2218 83.9398 37.2885 84.1059 37.2916Z" fill="#35489B"/>
<path id="Vector_22" d="M82.3845 37.2916C82.5093 37.2916 82.6313 37.2549 82.7351 37.186C82.8388 37.1172 82.9197 37.0193 82.9674 36.9049C83.0151 36.7904 83.0275 36.6645 83.003 36.543C82.9785 36.4216 82.9183 36.3101 82.8299 36.2226C82.7416 36.1351 82.629 36.0756 82.5066 36.0516C82.3841 36.0277 82.2572 36.0403 82.142 36.0879C82.0268 36.1355 81.9284 36.2159 81.8592 36.3191C81.7901 36.4222 81.7534 36.5434 81.7537 36.6672C81.7576 36.8319 81.8253 36.9887 81.9428 37.105C82.0603 37.2213 82.2185 37.2882 82.3845 37.2916Z" fill="#35489B"/>
<path id="Vector_23" d="M95.1757 42.1343C95.0509 42.1343 94.929 42.171 94.8253 42.2398C94.7215 42.3085 94.6407 42.4063 94.5929 42.5207C94.5452 42.635 94.5327 42.7609 94.557 42.8823C94.5814 43.0037 94.6415 43.1152 94.7297 43.2028C94.8179 43.2903 94.9303 43.3499 95.0527 43.3741C95.175 43.3982 95.3018 43.3858 95.4171 43.3385C95.5324 43.2911 95.6309 43.2109 95.7002 43.1079C95.7695 43.005 95.8065 42.884 95.8065 42.7602C95.803 42.5953 95.7354 42.4381 95.6179 42.3214C95.5003 42.2048 95.3419 42.1378 95.1757 42.1343Z" fill="#35489B"/>
<path id="Vector_24" d="M93.4543 42.1343C93.3295 42.1343 93.2076 42.171 93.1038 42.2398C93.0001 42.3085 92.9192 42.4063 92.8715 42.5207C92.8238 42.635 92.8113 42.7609 92.8356 42.8823C92.8599 43.0037 92.92 43.1152 93.0082 43.2028C93.0965 43.2903 93.2088 43.3499 93.3312 43.3741C93.4536 43.3982 93.5804 43.3858 93.6957 43.3385C93.8109 43.2911 93.9094 43.2109 93.9787 43.1079C94.0481 43.005 94.0851 42.884 94.0851 42.7602C94.0816 42.5953 94.014 42.4381 93.8964 42.3214C93.7789 42.2048 93.6205 42.1378 93.4543 42.1343Z" fill="#35489B"/>
<path id="Vector_25" d="M101.708 37.2917H103.899L103.739 36.3135H100.183V37.1224L102.536 40.8506H97.9893V36.7157C97.9893 36.1003 97.4617 36.0096 97.2437 36.0096C96.9395 35.9985 96.6369 36.057 96.3593 36.1805L96.4736 36.7943C96.5447 36.7742 96.6179 36.7625 96.6917 36.7595C96.8442 36.7595 96.9097 36.817 96.9097 36.953V40.8506H94.8543V38.0718H93.7793V40.8506H88.6713V36.7157C88.6713 36.1003 88.1437 36.0096 87.9256 36.0096C87.6216 35.9989 87.319 36.0573 87.0413 36.1805L87.1571 36.7943C87.2277 36.7743 87.3004 36.7626 87.3737 36.7595C87.5261 36.7595 87.5917 36.817 87.5917 36.953V40.8506V41.8409H103.995V41.0215L101.708 37.2917Z" fill="#35489B"/>
<path id="Vector_26" d="M85.2956 40.3381C85.2956 40.6405 85.1568 40.7479 84.9388 40.7479H81.4836C81.1786 40.7479 81.1161 40.5543 81.1161 40.3381V38.7567L80.0259 39.4582V40.3896C80.0259 41.2967 80.6358 41.8364 81.5187 41.8364H84.9357C85.8186 41.8364 86.3934 41.2438 86.3934 40.3896V38.0613H85.2925L85.2956 40.3381Z" fill="#35489B"/>
<path id="Vector_27" d="M61.2004 42.1343C61.0756 42.1343 60.9537 42.171 60.8499 42.2398C60.7462 42.3085 60.6653 42.4063 60.6176 42.5207C60.5699 42.635 60.5574 42.7609 60.5817 42.8823C60.606 43.0037 60.6661 43.1152 60.7543 43.2028C60.8426 43.2903 60.9549 43.3499 61.0773 43.3741C61.1997 43.3982 61.3265 43.3858 61.4418 43.3385C61.557 43.2911 61.6555 43.2109 61.7249 43.1079C61.7942 43.005 61.8312 42.884 61.8312 42.7602C61.8277 42.5953 61.7601 42.4381 61.6425 42.3214C61.525 42.2048 61.3666 42.1378 61.2004 42.1343Z" fill="#35489B"/>
<path id="Vector_28" d="M59.4785 42.1343C59.3537 42.134 59.2316 42.1704 59.1276 42.239C59.0237 42.3076 58.9426 42.4053 58.8946 42.5196C58.8467 42.634 58.834 42.7599 58.8581 42.8814C58.8823 43.0029 58.9422 43.1146 59.0304 43.2022C59.1186 43.2899 59.231 43.3497 59.3534 43.374C59.4758 43.3982 59.6027 43.3859 59.718 43.3386C59.8334 43.2913 59.932 43.211 60.0014 43.1081C60.0707 43.0051 60.1078 42.884 60.1078 42.7602C60.1039 42.5957 60.0364 42.4389 59.9193 42.3224C59.8021 42.2058 59.6443 42.1385 59.4785 42.1343Z" fill="#35489B"/>
<path id="Vector_29" d="M76.1041 36.0095C75.8 35.9979 75.4972 36.0564 75.2197 36.1803L75.3341 36.7942C75.4051 36.774 75.4783 36.7624 75.5521 36.7594C75.7046 36.7594 75.7717 36.8168 75.7717 36.9544V41.8408H76.8543V36.7155C76.8543 36.1002 76.3267 36.0095 76.1087 36.0095" fill="#35489B"/>
<path id="Vector_30" d="M65.1423 42.6332C64.8374 42.6332 64.3616 42.5757 64.3616 41.4025C64.3616 40.2293 64.8328 40.1749 65.1423 40.1749C65.4519 40.1749 65.923 40.2308 65.923 41.4025C65.923 42.5742 65.4519 42.6332 65.1423 42.6332ZM73.9389 36.0097C73.6347 35.9981 73.332 36.0566 73.0545 36.1805L73.1688 36.7944C73.2399 36.7743 73.3131 36.7627 73.3869 36.7596C73.5394 36.7596 73.6049 36.817 73.6049 36.9546V40.8507H70.4974V38.0719H69.4179V40.8507H66.9782C66.7937 39.7183 66.0176 39.4568 65.1362 39.4568C64.2549 39.4568 63.4696 39.7017 63.2928 40.8507H60.879V38.0719H59.7994V40.8507H54.6517V38.0719H53.5722V42.1343C53.5722 42.4986 53.4578 42.5788 53.1361 42.5788C52.9571 42.5706 52.7801 42.5381 52.61 42.482L52.4377 43.2561C52.7406 43.3396 53.0536 43.3814 53.3679 43.38C54.4124 43.38 54.6533 42.6861 54.6533 42.0194V41.8274H63.2836C63.4361 43.1366 64.2762 43.3392 65.1393 43.3392C66.0023 43.3392 66.844 43.1291 66.995 41.8274H74.6814V36.7021C74.6814 36.0868 74.1523 35.9961 73.9358 35.9961" fill="#35489B"/>
<path id="Vector_31" d="M70.8034 37.2916C70.9282 37.2916 71.0502 37.2549 71.154 37.186C71.2578 37.1172 71.3386 37.0193 71.3863 36.9049C71.434 36.7904 71.4464 36.6645 71.422 36.543C71.3975 36.4216 71.3373 36.3101 71.2489 36.2226C71.1605 36.1351 71.048 36.0756 70.9255 36.0516C70.8031 36.0277 70.6762 36.0403 70.561 36.0879C70.4457 36.1355 70.3473 36.2159 70.2782 36.3191C70.209 36.4222 70.1723 36.5434 70.1726 36.6672C70.1765 36.8319 70.2442 36.9887 70.3618 37.105C70.4793 37.2213 70.6375 37.2882 70.8034 37.2916Z" fill="#35489B"/>
<path id="Vector_32" d="M69.0771 37.2916C69.2019 37.2916 69.3239 37.2549 69.4277 37.186C69.5315 37.1172 69.6123 37.0193 69.66 36.9049C69.7077 36.7904 69.7201 36.6645 69.6956 36.543C69.6712 36.4216 69.6109 36.3101 69.5226 36.2226C69.4342 36.1351 69.3217 36.0756 69.1992 36.0516C69.0767 36.0277 68.9499 36.0403 68.8346 36.0879C68.7194 36.1355 68.621 36.2159 68.5519 36.3191C68.4827 36.4222 68.446 36.5434 68.4463 36.6672C68.4502 36.8319 68.5179 36.9887 68.6354 37.105C68.7529 37.2213 68.9111 37.2882 69.0771 37.2916Z" fill="#35489B"/>
<path id="Vector_33" d="M54.0837 37.2916C54.2085 37.2916 54.3305 37.2549 54.4343 37.186C54.538 37.1172 54.6189 37.0193 54.6666 36.9049C54.7143 36.7904 54.7267 36.6645 54.7022 36.543C54.6778 36.4216 54.6175 36.3101 54.5292 36.2226C54.4408 36.1351 54.3283 36.0756 54.2058 36.0516C54.0833 36.0277 53.9565 36.0403 53.8412 36.0879C53.726 36.1355 53.6276 36.2159 53.5584 36.3191C53.4893 36.4222 53.4526 36.5434 53.4529 36.6672C53.4568 36.8319 53.5245 36.9887 53.642 37.105C53.7595 37.2213 53.9177 37.2882 54.0837 37.2916Z" fill="#35489B"/>
<path id="Vector_34" d="M59.7198 35.7994H60.9595C61.3148 35.7994 61.4749 35.6059 61.4749 35.3337V34.3662H61.0052V35.2249C61.0052 35.3156 60.9595 35.3277 60.8787 35.3277H60.5737V34.3601H60.0919V35.3277H59.7869C59.6726 35.3277 59.6604 35.2944 59.6604 35.2249V34.3601H59.1892V35.3277C59.1892 35.5439 59.2944 35.7934 59.7076 35.7934" fill="#35489B"/>
<path id="Vector_35" d="M13.3115 22.483C13.3115 22.483 13.6272 17.4863 16.7576 14.396C16.7576 14.396 17.6038 19.9899 19.7507 25.0743C18.2014 22.9931 17.0632 20.6401 16.3962 18.1394C16.3962 18.1394 14.7189 35.1796 23.9805 51.3415C23.9805 51.3415 11.8401 35.4321 15.245 18.3465C15.245 18.3465 14.1395 19.1312 13.3191 22.483" fill="#35489B"/>
<path id="Vector_36" d="M7.37552 20.2167C7.37552 20.2167 8.85762 17.3063 13.6821 14.396C13.6821 14.396 10.5669 18.0895 10.1415 25.0713C10.1415 25.0713 9.48889 21.7936 10.1171 19.5001C10.1171 19.5001 5.46648 26.2581 7.27336 39.3992C7.27336 39.3992 3.33177 26.4153 10.0271 18.1001C10.0271 18.1001 8.88964 18.472 7.37552 20.2167Z" fill="#35489B"/>
<path id="Vector_37" d="M7.15281 13.4737C7.15281 13.4737 10.242 12.172 13.682 12.4321C11.8412 13.3419 10.264 14.7008 9.09844 16.3811C9.09844 16.3811 9.27684 15.0945 10.114 14.2871C10.114 14.2871 2.59977 18.0199 0 26.8976C0 26.8976 1.48667 16.5353 10.114 13.3513C10.114 13.3513 9.57418 13.1517 7.15281 13.4737Z" fill="#35489B"/>
<path id="Vector_38" d="M11.8093 8.83545C11.8093 8.83545 14.4243 9.05769 15.3071 10.5983C15.3071 10.5983 12.4421 10.3745 9.96122 11.4086C9.96122 11.4086 10.2662 10.7873 11.4769 10.5635C11.4769 10.5635 9.03719 9.80758 4.09229 11.4102C4.09229 11.4102 8.57518 8.92616 12.6311 9.72896C12.6311 9.72896 12.8964 9.54905 11.8062 8.83545" fill="#35489B"/>
<path id="Vector_39" d="M18.9563 4.98765C18.9563 4.98765 18.1741 6.58267 18.4363 9.05608C18.4363 9.05608 20.1624 6.52522 24.5187 4.49931C24.5187 4.49931 23.363 4.3058 21.0498 5.7965C21.0498 5.7965 23.6969 2.03951 27.454 0C27.454 0 22.9192 0.842109 19.586 6.06712C19.586 6.06712 18.9837 5.6695 18.9578 4.98765" fill="#35489B"/>
<path id="Vector_40" d="M30.1237 4.38302C30.2929 4.27568 25.6667 6.22145 21.2966 9.37218C21.2966 9.37218 32.9827 7.04995 38.9095 9.11667C38.9095 9.11667 34.7773 6.53592 27.7602 7.49142C27.7602 7.49142 37.1225 4.13356 45.4478 10.2128C45.4478 10.2128 39.6292 3.53033 27.7602 6.43311C27.7602 6.43311 28.085 5.67718 30.1267 4.37244" fill="#35489B"/>
<path id="Vector_41" d="M29.3308 10.0087C29.3308 10.0087 24.7275 10.0797 21.4812 11.1849C21.4812 11.1849 28.0241 12.6121 32.4978 15.4514C32.4978 15.4514 29.9667 12.6635 26.9369 11.9741C26.9369 11.9741 34.4084 11.4057 46.6403 20.6008C46.6403 20.6008 38.9996 11.4057 26.9476 11.1381C26.9476 11.1381 27.2785 10.4018 29.3308 10.0042" fill="#35489B"/>
<path id="Vector_42" d="M30.9196 18.4434C30.9196 18.4434 23.6921 13.8413 20.1729 13.238C20.1729 13.238 24.3691 17.9535 26.8728 24.4258C26.8728 24.4258 25.7688 18.9287 24.2806 16.8952C24.2806 16.8952 33.6962 25.6988 38.4811 35.597C38.4811 35.597 34.3229 22.5496 25.9777 16.605C25.9777 16.605 27.5971 16.8952 30.9135 18.4404" fill="#35489B"/>
</g>
</g>
</svg>
