<svg width="16" height="16" viewBox="0 0 16 16" fill="none" xmlns="http://www.w3.org/2000/svg">
<path d="M10.6667 8.59992V11.3999C10.6667 13.7333 9.73334 14.6666 7.40001 14.6666H4.60001C2.26668 14.6666 1.33334 13.7333 1.33334 11.3999V8.59992C1.33334 6.26659 2.26668 5.33325 4.60001 5.33325H7.40001C9.73334 5.33325 10.6667 6.26659 10.6667 8.59992Z" fill="#35489B"/>
<path d="M11.4 1.33325H8.6C6.6793 1.33325 5.71167 1.97018 5.42923 3.49252C5.32764 4.04009 5.79499 4.49992 6.3519 4.49992H7.4C10.2 4.49992 11.5 5.79992 11.5 8.59992V9.64802C11.5 10.2049 11.9598 10.6723 12.5074 10.5707C14.0297 10.2882 14.6667 9.32062 14.6667 7.39992V4.59992C14.6667 2.26659 13.7333 1.33325 11.4 1.33325Z" fill="#35489B"/>
</svg>
