<svg width="16" height="16" viewBox="0 0 16 16" fill="none" xmlns="http://www.w3.org/2000/svg">
<path d="M12.9564 2.68957C13.0446 2.82819 12.8935 2.98966 12.7333 2.95325C12.42 2.85992 12.0733 2.81325 11.72 2.81325H9.60303C9.44582 2.81325 9.29776 2.73931 9.20331 2.61362L8.48665 1.65992C8.39274 1.52688 8.48151 1.33325 8.64435 1.33325H10.48C11.5207 1.33325 12.4374 1.87374 12.9564 2.68957Z" fill="#35489B"/>
<path d="M13.4267 4.35992C13.14 4.15325 12.8133 3.99992 12.46 3.91325C12.22 3.84659 11.9733 3.81325 11.72 3.81325H9.24001C8.85334 3.81325 8.82668 3.77992 8.62001 3.50659L7.68668 2.26659C7.25334 1.68659 6.91334 1.33325 5.82668 1.33325H4.28001C2.65334 1.33325 1.33334 2.65325 1.33334 4.27992V11.7199C1.33334 13.3466 2.65334 14.6666 4.28001 14.6666H11.72C13.3467 14.6666 14.6667 13.3466 14.6667 11.7199V6.75992C14.6667 5.76659 14.18 4.89325 13.4267 4.35992ZM9.59334 10.8933H6.40001C6.14001 10.8933 5.94001 10.6866 5.94001 10.4266C5.94001 10.1733 6.14001 9.95992 6.40001 9.95992H9.59334C9.85334 9.95992 10.06 10.1733 10.06 10.4266C10.06 10.6866 9.85334 10.8933 9.59334 10.8933Z" fill="#35489B"/>
</svg>
