<svg width="24" height="24" viewBox="0 0 24 24" fill="none" xmlns="http://www.w3.org/2000/svg">
<g id="Frame" clip-path="url(#clip0_1_1303)">
<g id="Group">
<path id="Vector" d="M14.8234 14.9584C14.8234 16.1261 15.7734 17.076 16.9411 17.076H20.4705V15.6642H16.9411C16.5518 15.6642 16.2352 15.3476 16.2352 14.9584C16.2352 14.5691 16.5518 14.2525 16.9411 14.2525H19.7646V12.8407H18.3528C17.9636 12.8407 17.6469 12.5241 17.6469 12.1348C17.6469 11.7456 17.9636 11.4289 18.3528 11.4289H19.7646V10.0172H18.3528C17.1852 10.0172 16.2352 10.9672 16.2352 12.1348C16.2351 12.4021 16.2859 12.667 16.3849 12.9153C15.4862 13.1603 14.8234 13.9831 14.8234 14.9584ZM6.72929 4.37012C5.1724 4.37012 3.90576 5.63675 3.90576 7.19365V11.4289H5.31753V9.31129H8.14106V11.4289H9.55282V7.19365C9.55282 5.63675 8.28619 4.37012 6.72929 4.37012ZM5.31753 7.89953V7.19365C5.31753 6.4152 5.95084 5.78188 6.72929 5.78188C7.50774 5.78188 8.14106 6.4152 8.14106 7.19365V7.89953H5.31753Z" fill="#393939"/>
<path id="Vector_2" d="M13.4118 7.19366V1.5466H0V14.2525H3.52941V16.8064L8.63722 14.2525H10.5882V19.8995H15.3628L20.4706 22.4534V19.8995H24V7.19361H13.4118V7.19366ZM8.30395 12.8407L4.94118 14.5221V12.8407H1.41176V2.95837H12V12.8407H8.30395ZM22.5882 18.4878H19.0588V20.1691L15.696 18.4878H12V14.2525H13.4118V8.60542H22.5882V18.4878Z" fill="#393939"/>
</g>
</g>
<defs>
<clipPath id="clip0_1_1303">
<rect width="24" height="24" fill="white"/>
</clipPath>
</defs>
</svg>
