<svg width="32" height="25" viewBox="0 0 32 25" fill="none" xmlns="http://www.w3.org/2000/svg">
<g id="Group">
<path id="Vector" fill-rule="evenodd" clip-rule="evenodd" d="M-2 0.5H34V24.5H-2V0.5Z" fill="#199D00"/>
<path id="Vector_2" fill-rule="evenodd" clip-rule="evenodd" d="M7.07027 7.30155C7.03277 7.86405 6.97652 8.84843 7.45933 8.95155C8.0359 9.0078 7.71715 7.97655 7.92808 7.78905C7.96558 7.6953 8.0359 7.6953 8.04058 7.81249V8.68905C8.04058 8.9703 8.22808 9.05468 8.36871 9.11093C8.51871 9.10155 8.62183 9.11093 8.67808 9.25155L8.75308 10.7656C8.75308 10.7656 9.09996 10.8687 9.11871 9.91718C9.13277 9.35468 9.00621 8.89062 9.08121 8.7828C9.08121 8.67499 9.22183 8.6703 9.31558 8.72187C9.46558 8.82499 9.53121 8.95624 9.76558 8.90937C10.1218 8.80624 10.3375 8.6328 10.3421 8.36093C10.3351 8.09375 10.2795 7.83008 10.1781 7.5828C10.1968 7.53593 10.1125 7.40937 10.1312 7.36249C10.1921 7.46562 10.2906 7.45624 10.3093 7.36249C10.2484 7.16562 10.1546 6.97343 10.0046 6.89374C9.87808 6.78124 9.69058 6.79999 9.62965 7.03437C9.59215 7.30155 9.7234 7.61562 9.91558 7.87812C9.95777 7.97655 10.014 8.1453 9.99058 8.2953C9.88746 8.35624 9.78433 8.32812 9.69527 8.23905C9.69527 8.23905 9.41402 8.02812 9.41402 7.97655C9.48902 7.49843 9.42808 7.44218 9.3859 7.30624C9.35777 7.12343 9.26871 7.06249 9.1984 6.94062C9.12808 6.86562 9.03433 6.86562 8.98746 6.94062C8.8609 7.15624 8.92183 7.6203 9.0109 7.83124C9.07652 8.02343 9.17496 8.1453 9.12808 8.1453C9.09058 8.25312 9.0109 8.22499 8.94996 8.09843C8.88136 7.83208 8.84826 7.55783 8.85152 7.2828C8.82808 7.06718 8.79996 6.6078 8.65465 6.48593C8.57027 6.37343 8.44371 6.42968 8.39683 6.5328C8.38446 6.74221 8.38916 6.95228 8.4109 7.16093C8.50465 7.5078 8.53746 7.81718 8.58433 8.16874C8.5984 8.64218 8.31246 8.37499 8.32652 8.13593C8.38802 7.83539 8.38322 7.52505 8.31246 7.22655C8.26558 7.10468 8.21402 7.07655 8.09683 7.0953C8.00777 7.0953 7.77808 7.34374 7.71246 7.76562C7.71246 7.76562 7.65621 7.98124 7.63277 8.17343C7.59996 8.38905 7.45933 8.54843 7.35621 8.1453C7.27183 7.84999 7.21558 7.1328 7.07496 7.30155H7.07027Z" fill="white"/>
<path id="Vector_3" fill-rule="evenodd" clip-rule="evenodd" d="M8.64062 9.60308L7.14062 10.325C7.15469 9.98276 7.84844 9.3687 8.32656 9.36401C8.63125 9.3687 8.55625 9.4812 8.63594 9.60308H8.64062Z" fill="white"/>
<path id="Vector_4" fill-rule="evenodd" clip-rule="evenodd" d="M8.37346 10.0718C7.58596 12.1108 10.225 12.3968 10.5203 10.1562C10.5485 10.0624 10.661 9.97334 10.6797 10.1233C10.6188 12.153 8.63596 12.289 8.29846 11.6515C8.21906 11.4321 8.17938 11.2004 8.18127 10.9671C8.13439 10.5687 7.92346 10.7233 7.89064 11.1171C7.85783 11.3374 7.86721 11.3983 7.86721 11.6093C7.97033 13.2124 10.525 12.5233 10.9422 11.2015C11.1625 10.4702 10.9047 9.93115 11.0219 9.93115C11.275 10.203 11.6313 9.96865 11.711 9.8749C11.7438 9.82803 11.8281 9.79522 11.8844 9.85615C12.0813 9.99678 12.4281 9.93115 12.5031 9.68272C12.5453 9.43428 12.5781 9.18115 12.5875 8.92334C12.4235 8.97022 12.3063 9.00303 12.2922 9.07334L12.2594 9.28897C12.2453 9.35928 12.1094 9.35928 12.1 9.27022C12.0391 8.98897 11.786 8.95615 11.6313 9.3874C11.5328 9.47178 11.3453 9.49053 11.3266 9.36397C11.35 9.07334 11.2328 9.03584 10.9985 9.17178L10.7735 7.4749C10.8672 7.4749 10.961 7.54522 11.05 7.43272C10.9563 7.12803 10.7453 6.50928 10.6281 6.4624C10.5766 6.39678 10.5297 6.43897 10.4547 6.45772C10.3328 6.49522 10.2203 6.59834 10.2578 6.80459C10.3985 7.68584 10.4922 8.35615 10.6375 9.24209C10.661 9.34053 10.5766 9.47647 10.4641 9.4624C10.2766 9.33584 10.2297 9.07803 9.90158 9.0874C9.66721 9.0874 9.40471 9.34522 9.37189 9.58897C9.32971 9.78584 9.31564 9.99678 9.37189 10.1655C9.53596 10.3624 9.73283 10.3437 9.90627 10.3015C10.0469 10.2405 10.1641 10.0999 10.2156 10.1327C10.2485 10.1749 10.2203 10.6437 9.54533 10.9999C9.13752 11.1874 8.80939 11.2249 8.63596 10.8921C8.52814 10.6812 8.64533 9.88897 8.37346 10.0718Z" fill="white"/>
<path id="Vector_5" fill-rule="evenodd" clip-rule="evenodd" d="M11.7344 8.00009C11.8891 7.94384 12.6391 7.08134 12.6391 7.08134L12.5266 6.98759C12.4844 6.95478 12.4891 6.91728 12.5266 6.88446C12.7141 6.77196 12.6532 6.53759 12.5594 6.42509C12.4958 6.39406 12.4257 6.37833 12.3549 6.37914C12.2841 6.37996 12.2145 6.39729 12.1516 6.42978C12.0203 6.55634 11.9922 6.7579 12.0953 6.87978C12.1938 6.92665 12.2922 7.02978 12.2266 7.08603C11.9172 7.41415 11.0782 7.98134 11.1766 8.00009C11.1953 8.02821 11.7157 8.02821 11.7297 8.00009H11.7344ZM7.18753 11.047C6.90628 11.497 6.88284 12.1673 7.03753 12.3688C7.12191 12.4626 7.25784 12.5048 7.35628 12.472C7.53441 12.397 7.61409 12.036 7.57191 11.9095C7.51097 11.8157 7.46409 11.8017 7.40316 11.8767C7.28128 12.1298 7.22972 11.9563 7.21566 11.8157C7.20222 11.5776 7.2148 11.3386 7.25316 11.1032C7.28597 10.9063 7.25316 10.9626 7.18753 11.047ZM19.2391 10.3298C18.9672 9.73915 18.5875 9.1579 18.4703 8.93759C18.1051 8.36011 17.7173 7.79718 17.3078 7.25009C17.0172 6.90321 17.786 7.3954 17.2141 6.70165L16.7969 6.35009C16.7032 6.28446 16.4782 6.16259 16.4407 6.35946C16.4219 6.53759 16.4313 6.63134 16.4594 6.77665C16.4828 6.8704 16.6235 7.03446 16.6938 7.12821C17.6548 8.40108 18.4988 9.75816 19.2157 11.1829C19.3375 11.122 19.3094 10.4282 19.2391 10.3298Z" fill="white"/>
<path id="Vector_6" fill-rule="evenodd" clip-rule="evenodd" d="M18.0437 12.289C17.9875 12.3499 18.175 12.6077 18.4187 12.6077C18.8219 12.5608 19.1781 12.3358 19.5062 11.7358C19.6396 11.5363 19.7246 11.3084 19.7547 11.0702C19.7944 9.93229 19.7031 8.79357 19.4828 7.67647C19.4687 7.58272 19.4828 7.47022 19.4922 7.4421C19.5203 7.40928 19.6094 7.44209 19.6562 7.36241C19.7265 7.29209 19.4687 6.70616 19.3281 6.48584C19.2812 6.38272 19.2578 6.31709 19.1734 6.49522C19.0716 6.69177 19.0231 6.91158 19.0328 7.13272C19.225 8.46866 19.2859 9.63584 19.4078 10.9718C19.4219 11.103 19.4031 11.2905 19.314 11.3655C18.9603 11.7593 18.5275 12.074 18.0437 12.289ZM23.5047 12.2843C23.214 12.453 23.214 12.6452 23.4484 12.6499C23.8515 12.603 24.3297 12.5702 24.6578 12.0733C24.7737 11.8393 24.8407 11.5841 24.8547 11.3233C24.9137 10.2029 24.8397 9.07948 24.6344 7.97647C24.625 7.88272 24.5828 7.66241 24.5969 7.63428C24.625 7.56866 24.7562 7.63897 24.8031 7.56397C24.8687 7.49366 24.4609 6.96866 24.3156 6.74366C24.2687 6.64053 24.25 6.57491 24.1609 6.75303C24.0665 6.95139 24.037 7.17445 24.0765 7.39053C24.2922 8.84366 24.4515 9.93116 24.4844 11.2155C24.4656 11.3374 24.4609 11.403 24.4047 11.5577C24.2781 11.7171 24.1375 11.9233 24.0062 12.0218C23.875 12.1155 23.5937 12.2093 23.5047 12.2843Z" fill="white"/>
<path id="Vector_7" fill-rule="evenodd" clip-rule="evenodd" d="M23.7203 10.9858C23.7203 10.6437 23.725 10.353 23.7156 10.0952C23.7126 9.87688 23.6647 9.66149 23.575 9.46241C23.4906 9.27022 23.5422 9.11553 23.5 8.90928C23.4625 8.70303 23.4719 8.39366 23.4156 8.1546C23.3969 8.06085 23.35 7.75616 23.3641 7.72335C23.3875 7.65772 23.4766 7.72335 23.5234 7.64835C23.5891 7.57803 23.2891 6.8046 23.1391 6.58428C23.0875 6.48585 22.9844 6.51866 22.8672 6.67803C22.75 6.78585 22.7922 7.02491 22.8391 7.2546C23.125 8.76866 23.3453 10.1421 23.2984 11.5812C23.2797 11.703 23.7203 11.2155 23.7203 10.9858ZM21.5781 9.11085C21.3953 9.10147 21.0156 8.74991 20.9031 8.54835C20.8847 8.49909 20.8769 8.4465 20.8801 8.39401C20.8833 8.34152 20.8976 8.29029 20.9219 8.24366C20.9922 8.19678 21.0953 8.14991 21.175 8.19678C21.175 8.19678 21.2547 8.30928 21.2406 8.32335C21.3344 8.37022 21.3812 8.34678 21.3906 8.3046C21.3953 8.23428 21.3625 8.1921 21.3625 8.1171C21.4047 7.90147 21.6437 7.86866 21.7375 8.0046C21.8031 8.08897 21.8312 8.26241 21.8359 8.3796C21.8359 8.44053 21.7422 8.37022 21.6812 8.3796C21.6297 8.39835 21.6156 8.46397 21.6109 8.52022C21.6016 8.67491 21.5828 8.92335 21.5781 9.10616V9.11085ZM18.2125 11.3608C18.2594 10.9015 18.1937 10.0812 18.1891 9.80928C18.164 9.11008 18.1061 8.41244 18.0156 7.71866C17.9594 7.32491 18.175 7.76085 18.1469 7.53116C18.0766 7.1421 17.8609 6.87491 17.6031 6.52335C17.5234 6.40616 17.5234 6.38272 17.3969 6.55147C17.2562 6.86553 17.3781 7.08585 17.4156 7.33428C17.5984 8.14053 17.7062 8.88116 17.7578 9.6171C17.8118 10.3816 17.818 11.1487 17.7766 11.914C17.9172 11.9187 18.1328 11.6937 18.2125 11.3608Z" fill="white"/>
<path id="Vector_8" fill-rule="evenodd" clip-rule="evenodd" d="M24.3437 10.625C24.0203 10.0812 23.5375 9.49998 23.4062 9.27967C22.9716 8.67268 22.515 8.08166 22.0375 7.5078C21.639 7.08592 22.225 7.43748 21.9625 7.10936C21.7422 6.8703 21.6812 6.79061 21.489 6.6453C21.3953 6.58436 21.339 6.46717 21.3015 6.66873C21.2866 6.84332 21.2835 7.01872 21.2922 7.19373C21.2922 7.27342 21.3765 7.42811 21.4515 7.52186C22.4218 8.71717 23.4859 9.93592 24.339 11.4687C24.4609 11.4078 24.4187 10.7187 24.339 10.625H24.3437Z" fill="white"/>
<path id="Vector_9" fill-rule="evenodd" clip-rule="evenodd" d="M9.74692 9.62644C9.72348 9.66863 9.67192 9.72019 9.69067 9.77176C9.72348 9.81863 9.75629 9.83269 9.81254 9.83269C9.86411 9.83269 9.93911 9.84676 9.95317 9.81863C9.98129 9.78582 10 9.72488 9.98129 9.66394C9.92504 9.52332 9.77504 9.57957 9.74692 9.62644Z" fill="#1BA400"/>
<path id="Vector_10" fill-rule="evenodd" clip-rule="evenodd" d="M20.6032 17.4921C21.0344 17.5109 21.3157 17.5155 21.6954 17.5577L22.1454 17.5109C22.6422 17.464 22.661 18.2187 22.661 18.2187C22.661 18.664 22.4875 18.6874 22.2672 18.7343C22.1407 18.753 22.0797 18.6593 22.0094 18.5655C21.9034 18.5995 21.7905 18.606 21.6813 18.5843C21.4985 18.5749 21.3204 18.5749 21.1422 18.5609C20.9547 18.5468 20.8516 18.5843 20.6594 18.5655C20.6219 18.6265 20.5657 18.7109 20.4532 18.6874C20.3594 18.6734 20.2422 18.4062 20.275 18.1952C20.3454 18.0452 20.3219 18.0968 20.3219 18.0312C18.5594 17.9843 16.7829 17.9046 15.0579 17.928C13.7079 17.9327 12.3766 17.989 11.0407 18.0452C10.3282 18.0359 9.78442 17.9234 9.40942 17.3749C9.44692 17.3749 11.2282 17.4734 11.7485 17.4405C12.7094 17.4312 13.5907 17.3515 14.5704 17.3234C16.5016 17.3562 18.4188 17.3562 20.35 17.4921C20.1625 17.3655 20.1625 17.0702 20.4438 16.9952C20.4672 16.9765 20.4813 17.1405 20.5235 17.1359C20.7532 17.1218 20.65 17.4312 20.6032 17.4921ZM12.8407 6.84211C12.55 7.67648 13.0094 8.59523 13.3282 8.50617C13.5625 8.59992 13.7032 8.1593 13.7969 7.68117C13.8672 7.54523 13.9141 7.53117 13.9469 7.60148C13.9375 8.23898 13.9938 8.3843 14.1579 8.57648C14.5235 8.85773 14.8282 8.61398 14.8516 8.59055L15.1329 8.30461C15.1985 8.2343 15.2829 8.2343 15.3719 8.29055C15.461 8.37023 15.4469 8.50617 15.6344 8.59992C15.7938 8.66555 16.1266 8.61867 16.2063 8.48273C16.3094 8.29992 16.3375 8.23898 16.3844 8.17336C16.4594 8.07492 16.586 8.11711 16.586 8.14992C16.5719 8.20617 16.4969 8.25773 16.5485 8.36086C16.6422 8.42648 16.661 8.3843 16.7125 8.37023C16.9 8.27648 17.0407 7.87336 17.0407 7.87336C17.0454 7.72336 16.961 7.73273 16.9047 7.77023L16.7594 7.86867C16.6657 7.88273 16.4922 7.94367 16.4032 7.80773C16.3141 7.64836 16.3141 7.41867 16.2485 7.25461C16.2485 7.24523 16.1266 6.9968 16.2391 6.98273C16.2954 6.99211 16.4125 7.02492 16.4313 6.92648C16.4875 6.82805 16.3094 6.55148 16.1829 6.41086C16.075 6.29367 15.925 6.27961 15.7797 6.40148C15.6766 6.49523 15.6907 6.59836 15.6719 6.6968C15.6541 6.76734 15.6534 6.8411 15.6697 6.912C15.686 6.9829 15.7189 7.04891 15.7657 7.10461C15.8688 7.30148 16.0516 7.5593 15.9907 7.92492C15.9907 7.92492 15.8829 8.09367 15.6954 8.07023C15.6157 8.05617 15.4891 8.02336 15.4235 7.51711C15.3719 7.14211 15.4329 6.60773 15.2735 6.3593C15.2125 6.20461 15.1704 6.0593 15.0297 6.31711C14.9922 6.42023 14.8282 6.57492 14.9454 6.88898C15.0563 7.172 15.0886 7.47971 15.0391 7.77961C14.9688 7.88273 14.9547 7.91555 14.8657 8.01398C14.7438 8.15461 14.6079 8.11711 14.5047 8.06555C14.411 8.00461 14.336 7.9718 14.2891 7.76086C14.2985 7.43273 14.3172 6.89367 14.2563 6.78117C14.1672 6.60305 14.0219 6.66867 13.961 6.72492C13.6821 7.03469 13.4954 7.41623 13.4219 7.82648C13.3375 8.09836 13.2485 8.01867 13.1875 7.91086C13.0375 7.77023 13.0235 6.6593 12.8407 6.84211Z" fill="white"/>
<path id="Vector_11" fill-rule="evenodd" clip-rule="evenodd" d="M13.7219 8.66095C13.8578 8.5672 13.7969 8.50158 13.9938 8.69845C14.2479 9.14807 14.3954 9.65002 14.425 10.1656C14.4157 10.2875 14.5 10.3625 14.5422 10.3344C14.561 10.0531 15.25 9.65939 15.8828 9.60314C15.9766 9.5797 15.9297 9.39689 15.9438 9.30314C15.9063 8.95158 16.1407 8.63283 16.4688 8.60939C16.9188 8.67501 17.0688 8.91408 17.0782 9.27501C17.0266 9.97814 16.2953 10.0953 15.8875 10.1516C15.8266 10.175 15.7985 10.2031 15.8875 10.236L17.6032 10.2453L17.6922 10.2922C17.7016 10.3391 17.6641 10.3016 17.5985 10.4141C17.5041 10.5799 17.445 10.7634 17.425 10.9531C16.9141 11.1219 16.3844 11.1875 15.85 11.2578C15.6625 11.3516 15.5688 11.4781 15.6063 11.6188C15.6719 11.7735 16.0844 11.9328 16.0844 11.9375C16.1641 11.9844 16.2532 12.1016 16.061 12.3406C15.2266 12.3031 14.575 11.9469 14.35 11.4453C14.2844 11.3938 14.2094 11.4453 14.1625 11.511C13.8344 11.9328 13.5157 12.3078 12.9578 12.5141C12.6297 12.5985 12.2875 12.4625 12.1282 12.2469C12.0203 12.1203 12.025 11.9844 11.9875 11.9563C11.8047 12.036 10.2578 12.6922 10.4547 12.3828C10.8297 11.9844 11.486 11.6844 12.0578 11.2906C12.1 11.1547 12.175 10.7047 12.4 10.5594C12.4141 10.5594 12.3672 10.8219 12.3719 10.9344C12.3719 11.0281 12.3625 11.061 12.3813 11.0375C12.4235 11.0141 13.1172 10.4656 13.1782 10.2969C13.2438 10.2031 13.1922 9.95939 13.1922 9.95001C13.061 9.61251 12.8782 9.58439 12.8125 9.41564C12.7516 9.19533 12.7797 8.9422 12.9063 8.8672C13.0188 8.76876 13.15 8.77814 13.2766 8.89064C13.4172 9.0172 13.5391 9.26564 13.5766 9.44845C13.5532 9.51876 13.3891 9.40158 13.3422 9.43439C13.4324 9.53807 13.4924 9.66455 13.5157 9.80001C13.6094 10.1844 13.5813 10.3344 13.4875 10.5828C13.1782 11.2344 12.7844 11.4266 12.4375 11.6703C12.4282 11.6703 12.4235 11.8344 12.55 11.9235C12.5969 11.9703 12.7797 11.9938 12.9907 11.9235C13.4413 11.6732 13.8057 11.2924 14.036 10.8313C14.0758 10.4803 14.0374 10.1249 13.9235 9.79064C13.7875 9.47658 13.6282 9.03126 13.6282 9.02189C13.6235 8.82501 13.6375 8.75939 13.7219 8.66095ZM9.23128 6.85158C9.42816 6.94533 9.80316 6.90314 9.78441 6.58439L9.77503 6.43908C9.73753 6.34533 9.62503 6.36876 9.60159 6.46251C9.59222 6.49533 9.61566 6.54689 9.58753 6.56095C9.56878 6.5797 9.50784 6.57033 9.50784 6.48126C9.50784 6.45314 9.48909 6.42501 9.47503 6.40626C9.46566 6.39689 9.45628 6.39689 9.43284 6.39689C9.40472 6.39689 9.40472 6.40158 9.39066 6.42501C9.38597 6.44845 9.37659 6.47189 9.37659 6.50001C9.37659 6.53283 9.35784 6.5422 9.33909 6.54689C9.31097 6.54689 9.31566 6.54689 9.29222 6.53751C9.28284 6.52345 9.26878 6.51876 9.26878 6.49064L9.25472 6.41564C9.24534 6.40158 9.22659 6.3922 9.20784 6.38751C9.10003 6.38751 9.09066 6.51408 9.10003 6.56095C9.09066 6.57033 9.08597 6.79064 9.23128 6.85158Z" fill="white"/>
<path id="Vector_12" fill-rule="evenodd" clip-rule="evenodd" d="M15.0203 9.2984C15.2171 9.39215 15.6906 9.34059 15.5734 9.0359L15.564 8.8859C15.5218 8.79215 15.414 8.81559 15.3906 8.91402C15.3812 8.94215 15.4046 8.99371 15.3718 9.00777C15.3578 9.02652 15.2921 9.01715 15.2968 8.93277C15.2968 8.90465 15.2781 8.87183 15.264 8.85309C15.2499 8.8484 15.2453 8.84371 15.2171 8.84371C15.1937 8.84371 15.1937 8.85309 15.1796 8.87652C15.1703 8.89996 15.1656 8.9234 15.1656 8.95152C15.1609 8.97965 15.1468 8.98902 15.1234 8.9984C15.0999 8.9984 15.1046 8.9984 15.0859 8.98434C15.0718 8.97027 15.0578 8.96559 15.0578 8.94215L15.0437 8.86715C15.0343 8.85309 15.0156 8.84371 14.9968 8.83902C14.889 8.83902 14.8796 8.9609 14.8843 9.00777C14.8796 9.01715 14.8749 9.24215 15.0249 9.2984H15.0203ZM18.3953 8.2859C18.5921 8.37965 18.9624 8.33746 18.9484 8.0234L18.939 7.8734C18.8968 7.77965 18.789 7.80309 18.7656 7.89684C18.7562 7.92965 18.7796 7.98121 18.7468 7.99996C18.7328 8.01402 18.6671 8.00465 18.6718 7.91558C18.6718 7.88746 18.6531 7.85934 18.639 7.84059C18.6249 7.83121 18.6203 7.83121 18.5921 7.83121C18.5687 7.83121 18.5687 7.84059 18.5546 7.86402L18.5406 7.93434C18.5359 7.96715 18.5218 7.98121 18.4984 7.98121C18.4749 7.98121 18.4796 7.98121 18.4609 7.97183C18.4468 7.95777 18.4328 7.95309 18.4328 7.92965C18.4328 7.90621 18.4281 7.86871 18.4187 7.84996C18.4093 7.8359 18.3906 7.83121 18.3718 7.82652C18.264 7.82652 18.2546 7.9484 18.2593 7.99527C18.2546 8.00465 18.2499 8.22496 18.3999 8.2859H18.3953ZM20.1437 10.8312C19.8015 11.2203 19.9515 11.8625 20.0312 12.0031C20.1437 12.2281 20.2328 12.3734 20.4531 12.4859C20.6546 12.6312 20.814 12.5421 20.8984 12.439C21.0999 12.2281 21.1046 11.689 21.1984 11.5859C21.264 11.389 21.4328 11.4218 21.5124 11.5109C21.587 11.6167 21.6869 11.7021 21.8031 11.7593C21.9906 11.9234 22.2156 11.9562 22.4406 11.8062C22.5906 11.7171 22.689 11.6093 22.7781 11.389C22.8718 11.1265 22.8249 9.90777 22.8015 9.1859L22.6046 8.17809C22.6046 8.16871 22.5812 7.69996 22.5578 7.59215C22.5578 7.54527 22.5437 7.53121 22.5906 7.5359C22.6421 7.58277 22.6468 7.58277 22.6843 7.59683C22.7312 7.60621 22.7781 7.51715 22.7453 7.44215L22.2765 6.57027C22.239 6.53277 22.1874 6.49527 22.1265 6.57965C22.0906 6.61219 22.0619 6.65201 22.0425 6.69646C22.0231 6.74091 22.0134 6.78897 22.014 6.83746C22.0281 7.04371 22.0609 7.25465 22.0749 7.4609L22.2624 8.52027C22.3234 9.27027 22.3374 9.88902 22.3984 10.6437C22.389 10.9625 22.2906 11.239 22.1968 11.2812C22.1968 11.2812 22.0562 11.3609 21.9624 11.2718C21.8921 11.2437 21.6156 10.8078 21.6156 10.8078C21.4749 10.6812 21.3812 10.714 21.2828 10.8078C21.0015 11.0796 20.8796 11.5765 20.6874 11.9234C20.6406 12.0031 20.4999 12.064 20.3499 11.9187C19.9656 11.389 20.1906 10.639 20.1437 10.8312ZM18.4843 6.43902C18.6624 6.50933 18.7843 6.87027 18.7468 7.0484C18.7093 7.25933 18.6156 7.49371 18.5499 7.46559C18.4749 7.43746 18.5968 7.24996 18.5265 7.05309C18.489 6.92184 18.2453 6.68746 18.2734 6.62184C18.2265 6.47652 18.3765 6.4109 18.4843 6.43433V6.43902Z" fill="white"/>
<path id="Vector_13" fill-rule="evenodd" clip-rule="evenodd" d="M20.7156 11.0468C20.7485 10.6155 20.6875 10.353 20.6781 10.0999C20.6688 9.84676 20.3922 7.91551 20.336 7.72801C20.2656 7.36238 20.6031 7.68113 20.5656 7.46551C20.4485 7.20301 20.1625 6.81395 20.0735 6.58426C20.0172 6.49051 20.0406 6.39676 19.9188 6.56082C19.8138 6.84847 19.7769 7.15652 19.811 7.46082C20.1016 8.97488 20.3969 10.2311 20.35 11.6702C20.4906 11.6702 20.6453 11.3561 20.7156 11.0468ZM23.7344 7.04832C23.8985 7.12801 23.9922 7.57801 23.9735 7.70457C23.9406 7.93895 23.8563 8.19207 23.7953 8.15926C23.725 8.13113 23.8094 7.81238 23.7766 7.71395C23.7391 7.57332 23.5188 7.3202 23.5422 7.2452C23.4953 7.08582 23.636 7.0202 23.7344 7.04832ZM11.7485 10.2311C11.9031 10.2921 11.9969 10.6202 11.9828 10.7139C11.9453 10.8874 11.8656 11.0749 11.8047 11.0468C11.7438 11.028 11.8188 10.7936 11.7906 10.7186C11.7766 10.5452 11.561 10.4514 11.5656 10.3764C11.5281 10.2358 11.6594 10.2124 11.7531 10.2311H11.7485Z" fill="white"/>
<path id="Vector_14" fill-rule="evenodd" clip-rule="evenodd" d="M15.4797 10.7282C15.6766 10.7375 15.775 10.8969 15.5922 10.9625C15.4047 11.0235 15.2313 11.075 15.2266 11.3375C15.2969 11.7125 15.1329 11.5813 15.0391 11.5344C14.9266 11.45 14.6079 11.2532 14.561 10.8313C14.5563 10.7329 14.636 10.6438 14.7625 10.6438C14.95 10.6954 15.2313 10.7 15.4797 10.7282Z" fill="#1B9D00"/>
<path id="Vector_15" fill-rule="evenodd" clip-rule="evenodd" d="M7.62811 6.33119C7.85311 6.39681 7.86717 6.73431 7.85311 6.83275C7.82029 7.01087 7.74061 7.20306 7.68436 7.17962C7.61873 7.15619 7.68436 6.91244 7.65155 6.83744C7.61873 6.73431 7.42654 6.53744 7.44529 6.48119C7.40311 6.364 7.53905 6.30775 7.62811 6.33119ZM12.1234 7.90619C11.9453 7.99994 11.8797 8.28119 11.9875 8.44994C12.0906 8.59056 12.25 8.539 12.2687 8.539C12.4422 8.55775 12.5453 8.21556 12.5453 8.21556C12.5453 8.21556 12.55 8.12181 12.3484 8.30462C12.2594 8.31869 12.2547 8.28587 12.2312 8.239C12.2098 8.14976 12.218 8.05595 12.2547 7.97181C12.2875 7.88744 12.2219 7.84994 12.1234 7.90619ZM13.4359 6.19994C13.3422 6.26087 13.1687 6.44369 13.164 6.64994C13.1594 6.76712 13.1359 6.76712 13.2109 6.83744C13.2719 6.92181 13.3234 6.91712 13.4359 6.85619C13.464 6.83854 13.488 6.81526 13.5066 6.78782C13.5251 6.76039 13.5378 6.7294 13.5437 6.69681C13.5719 6.56556 13.4031 6.76244 13.3844 6.61244C13.3469 6.47181 13.4547 6.41556 13.5578 6.28431C13.5578 6.19056 13.5578 6.12962 13.4312 6.19994H13.4359ZM14.4859 6.38744C14.4446 6.55813 14.4195 6.73234 14.4109 6.90775C14.3828 7.039 14.5515 7.09525 14.6219 6.9265C14.7344 6.62181 14.7344 6.49056 14.7437 6.364C14.7109 6.16244 14.575 6.16712 14.4859 6.38744ZM21.1422 9.7765C21.1609 9.75306 22.0797 9.1015 22.0797 9.1015C22.1734 9.06869 22.15 9.439 22.1078 9.43431C21.8229 9.70891 21.4951 9.93531 21.1375 10.1046C21.0906 10.1374 21.0484 9.85619 21.1375 9.7765H21.1422ZM21.9719 9.76712C22.1359 9.84681 22.2015 10.3202 22.1828 10.4468C22.1828 10.6999 22.0281 10.8968 21.9625 10.8687C21.8969 10.8359 21.9719 10.5546 21.939 10.4562C21.9015 10.3156 21.7656 10.0577 21.789 9.98275C21.7422 9.82337 21.8734 9.739 21.9765 9.76712H21.9719ZM16.5344 11.8015C16.6104 11.7127 16.6988 11.6354 16.7969 11.5718C16.8906 11.5249 16.975 11.6093 16.9703 11.6046C16.9844 11.6984 16.914 11.7781 16.9375 11.8999C16.9562 11.9468 16.9703 12.0031 17.0594 11.9843C17.2047 11.8671 17.3406 11.8577 17.4812 11.8531C17.5984 11.8577 17.6031 12.0499 17.5281 12.0499C17.2609 12.1062 17.1437 12.1812 16.9515 12.2515C16.8578 12.3077 16.7828 12.2374 16.7828 12.2327C16.7828 12.2281 16.7312 12.1812 16.764 12.0593C16.7734 11.9656 16.7359 11.9093 16.6515 11.9187C16.5953 11.9562 16.539 11.9749 16.5109 11.9046C16.4969 11.8577 16.4922 11.8296 16.5344 11.8015ZM22.9375 12.0546C22.975 12.1015 23.0031 12.1484 22.9328 12.2327L22.7594 12.3827C22.7312 12.4296 22.7125 12.514 22.8062 12.5374C22.975 12.5843 23.3687 12.3265 23.3687 12.3218C23.4344 12.2749 23.4156 12.1812 23.4062 12.1812C23.3687 12.139 23.2844 12.1671 23.2281 12.1577C23.2 12.1577 23.1109 12.1484 23.1531 12.064C23.1846 12.0226 23.2099 11.9768 23.2281 11.9281C23.2515 11.8718 23.2281 11.8343 23.1344 11.8015C23.0359 11.7827 22.9937 11.7921 22.8859 11.8015C22.8297 11.8109 22.8109 11.839 22.7969 11.9093C22.8015 12.0171 22.8672 12.0124 22.9375 12.0499V12.0546Z" fill="white"/>
<path id="Vector_16" fill-rule="evenodd" clip-rule="evenodd" d="M16.5672 9.39216C16.5437 9.43903 16.4594 9.43903 16.3797 9.39216C16.3 9.34528 16.2531 9.27028 16.2812 9.2281C16.3094 9.18591 16.389 9.18591 16.4687 9.2281C16.5484 9.27028 16.5906 9.34997 16.5672 9.39216ZM12.3953 6.87966C12.3484 6.89372 12.2828 6.85154 12.2547 6.78591C12.2265 6.72029 12.2406 6.66403 12.2875 6.64997C12.3344 6.63591 12.3953 6.68278 12.4281 6.74372C12.4609 6.80466 12.4422 6.87028 12.3906 6.88435L12.3953 6.87966Z" fill="#259F00"/>
<path id="Vector_17" fill-rule="evenodd" clip-rule="evenodd" d="M20.65 18.0781C21.0907 18.0969 21.5032 18.0781 21.9391 18.1016C22.0188 18.1719 21.9625 18.3359 21.911 18.3266L21.5454 18.3125C21.5407 18.1719 21.1844 18.1953 21.1938 18.3172C21.0016 18.3406 20.8282 18.3125 20.6313 18.3031C20.575 18.2328 20.5844 18.1063 20.65 18.0781Z" fill="#209000"/>
</g>
</svg>
