<svg width="16" height="16" viewBox="0 0 16 16" fill="none" xmlns="http://www.w3.org/2000/svg">
<path d="M12.5 14.6666C13.6966 14.6666 14.6667 13.6965 14.6667 12.4999C14.6667 11.3033 13.6966 10.3333 12.5 10.3333C11.3034 10.3333 10.3333 11.3033 10.3333 12.4999C10.3333 13.6965 11.3034 14.6666 12.5 14.6666Z" fill="#35489B"/>
<path d="M12.6667 5.33325C13.7712 5.33325 14.6667 4.43782 14.6667 3.33325C14.6667 2.22868 13.7712 1.33325 12.6667 1.33325C11.5621 1.33325 10.6667 2.22868 10.6667 3.33325C10.6667 4.43782 11.5621 5.33325 12.6667 5.33325Z" fill="#35489B"/>
<path d="M3.33334 5.33325C4.43791 5.33325 5.33334 4.43782 5.33334 3.33325C5.33334 2.22868 4.43791 1.33325 3.33334 1.33325C2.22877 1.33325 1.33334 2.22868 1.33334 3.33325C1.33334 4.43782 2.22877 5.33325 3.33334 5.33325Z" fill="#35489B"/>
<path d="M3.21999 5.34659C3.86666 7.19992 5.61332 8.44659 7.57999 8.44659C7.58665 8.44659 7.59332 8.44659 7.59999 8.44659L9.95332 8.43992C10.9667 8.42659 11.8733 9.11325 12.1467 10.0999V11.3333C12.1467 11.6133 12.3733 11.8399 12.66 11.8399C12.94 11.8399 13.1667 11.6133 13.1667 11.3333V3.83992C13.1667 3.55992 12.94 3.33325 12.66 3.33325C12.38 3.33325 12.1467 3.55992 12.1467 3.83992V8.25325C11.56 7.73325 10.7933 7.41325 9.95999 7.41325C9.95332 7.41325 9.95332 7.41325 9.94665 7.41325L7.59332 7.41992C7.58666 7.41992 7.58665 7.41992 7.57999 7.41992C6.05332 7.41992 4.68666 6.45325 4.18666 5.00659C4.10666 4.79992 3.91332 4.66659 3.69999 4.66659C3.64666 4.66659 3.58666 4.67992 3.53332 4.69325C3.26666 4.78659 3.12666 5.07992 3.21999 5.34659Z" fill="#35489B"/>
</svg>
