<svg xmlns="http://www.w3.org/2000/svg" width="280" height="2000"><path d="M2,2130L-126,2145L184,2147Z" fill="#4b62b2" stroke="#4b62b2" stroke-width="1.51"/><path d="M184,2147L-126,2145L321,2164Z" fill="#506ac3" stroke="#506ac3" stroke-width="1.51"/><path d="M377,1200L298,1292L380,1337Z" fill="#506bca" stroke="#506bca" stroke-width="1.51"/><path d="M375,598L390,660L399,482Z" fill="#4a61ae" stroke="#4a61ae" stroke-width="1.51"/><path d="M377,1200L380,1337L401,1426Z" fill="#516ecf" stroke="#516ecf" stroke-width="1.51"/><path d="M390,660L385,788L401,865Z" fill="#4c64b7" stroke="#4c64b7" stroke-width="1.51"/><path d="M401,1426L323,1524L405,1541Z" fill="#5370d4" stroke="#5370d4" stroke-width="1.51"/><path d="M305,166L316,235L406,131Z" fill="#41569f" stroke="#41569f" stroke-width="1.51"/><path d="M397,-56L390,48L406,131Z" fill="#40569f" stroke="#40569f" stroke-width="1.51"/><path d="M397,-56L406,131L410,-144Z" fill="#3f559d" stroke="#3f559d" stroke-width="1.51"/><path d="M380,1843L327,1959L416,1961Z" fill="#5876dd" stroke="#5876dd" stroke-width="1.51"/><path d="M405,1541L316,1600L425,1645Z" fill="#5472d7" stroke="#5472d7" stroke-width="1.51"/><path d="M401,1426L405,1541L425,1645Z" fill="#5573d8" stroke="#5573d8" stroke-width="1.51"/><path d="M380,1843L416,1961L425,1645Z" fill="#5877de" stroke="#5877de" stroke-width="1.51"/><path d="M371,1733L380,1843L425,1645Z" fill="#5675db" stroke="#5675db" stroke-width="1.51"/><path d="M406,131L316,235L430,275Z" fill="#4359a3" stroke="#4359a3" stroke-width="1.51"/><path d="M316,235L382,374L430,275Z" fill="#445aa5" stroke="#445aa5" stroke-width="1.51"/><path d="M382,374L399,482L430,275Z" fill="#465da9" stroke="#465da9" stroke-width="1.51"/><path d="M410,-144L406,131L430,275Z" fill="#4258a2" stroke="#4258a2" stroke-width="1.51"/><path d="M416,1961L326,2040L430,2068Z" fill="#5a79e1" stroke="#5a79e1" stroke-width="1.51"/><path d="M321,2164L423,2154L430,2068Z" fill="#5b7ae3" stroke="#5b7ae3" stroke-width="1.51"/><path d="M326,2040L321,2164L430,2068Z" fill="#5978e0" stroke="#5978e0" stroke-width="1.51"/><path d="M425,1645L416,1961L430,2068Z" fill="#5979e1" stroke="#5979e1" stroke-width="1.51"/><path d="M377,1200L401,1426L433,989Z" fill="#516dcb" stroke="#516dcb" stroke-width="1.51"/><path d="M390,1087L377,1200L433,989Z" fill="#506bc6" stroke="#506bc6" stroke-width="1.51"/><path d="M401,865L296,991L433,989Z" fill="#4d66be" stroke="#4d66be" stroke-width="1.51"/><path d="M296,991L390,1087L433,989Z" fill="#4e68c1" stroke="#4e68c1" stroke-width="1.51"/><path d="M390,660L401,865L433,989Z" fill="#4d66bb" stroke="#4d66bb" stroke-width="1.51"/><path d="M399,482L390,660L433,989Z" fill="#4d64b5" stroke="#4d64b5" stroke-width="1.51"/><path d="M401,1426L425,1645L433,989Z" fill="#5370d4" stroke="#5370d4" stroke-width="1.51"/><path d="M430,275L399,482L433,989Z" fill="#4b62b1" stroke="#4b62b1" stroke-width="1.51"/><path d="M425,1645L430,2068L433,989Z" fill="#5674da" stroke="#5674da" stroke-width="1.51"/><path d="M327,1959L326,2040L416,1961Z" fill="#5876dd" stroke="#5876dd" stroke-width="1.51"/><path d="M302,674L385,788L390,660Z" fill="#4a61b1" stroke="#4a61b1" stroke-width="1.51"/><path d="M382,374L327,386L399,482Z" fill="#465ca8" stroke="#465ca8" stroke-width="1.51"/><path d="M327,386L319,471L399,482Z" fill="#465ba7" stroke="#465ba7" stroke-width="1.51"/><path d="M280,877L296,991L401,865Z" fill="#4b63b8" stroke="#4b63b8" stroke-width="1.51"/><path d="M316,1600L371,1733L425,1645Z" fill="#5472d7" stroke="#5472d7" stroke-width="1.51"/><path d="M319,471L299,579L375,598Z" fill="#475da9" stroke="#475da9" stroke-width="1.51"/><path d="M316,235L327,386L382,374Z" fill="#4358a3" stroke="#4358a3" stroke-width="1.51"/><path d="M318,-49L390,48L397,-56Z" fill="#3e539b" stroke="#3e539b" stroke-width="1.51"/><path d="M319,471L375,598L399,482Z" fill="#485eaa" stroke="#485eaa" stroke-width="1.51"/><path d="M318,-49L397,-56L410,-144Z" fill="#3d5299" stroke="#3d5299" stroke-width="1.51"/><path d="M314,-178L318,-49L410,-144Z" fill="#3b5096" stroke="#3b5096" stroke-width="1.51"/><path d="M371,1733L322,1843L380,1843Z" fill="#5673d9" stroke="#5673d9" stroke-width="1.51"/><path d="M322,1843L327,1959L380,1843Z" fill="#5674da" stroke="#5674da" stroke-width="1.51"/><path d="M288,1186L377,1200L390,1087Z" fill="#4e69c5" stroke="#4e69c5" stroke-width="1.51"/><path d="M272,1118L288,1186L390,1087Z" fill="#4d67c1" stroke="#4d67c1" stroke-width="1.51"/><path d="M380,1337L298,1408L401,1426Z" fill="#516ed0" stroke="#516ed0" stroke-width="1.51"/><path d="M323,1524L316,1600L405,1541Z" fill="#526fd3" stroke="#526fd3" stroke-width="1.51"/><path d="M390,48L289,65L406,131Z" fill="#3f559d" stroke="#3f559d" stroke-width="1.51"/><path d="M298,1408L323,1524L401,1426Z" fill="#516dd0" stroke="#516dd0" stroke-width="1.51"/><path d="M385,788L294,816L401,865Z" fill="#4b63b7" stroke="#4b63b7" stroke-width="1.51"/><path d="M289,65L305,166L406,131Z" fill="#3f549c" stroke="#3f549c" stroke-width="1.51"/><path d="M316,1600L271,1711L371,1733Z" fill="#5370d3" stroke="#5370d3" stroke-width="1.51"/><path d="M103,2127L2,2130L184,2147Z" fill="#4e68be" stroke="#4e68be" stroke-width="1.51"/><path d="M294,816L280,877L401,865Z" fill="#4a62b6" stroke="#4a62b6" stroke-width="1.51"/><path d="M302,674L294,816L385,788Z" fill="#4961b1" stroke="#4961b1" stroke-width="1.51"/><path d="M318,-49L289,65L390,48Z" fill="#3d5299" stroke="#3d5299" stroke-width="1.51"/><path d="M375,598L302,674L390,660Z" fill="#4960af" stroke="#4960af" stroke-width="1.51"/><path d="M296,991L272,1118L390,1087Z" fill="#4c66be" stroke="#4c66be" stroke-width="1.51"/><path d="M288,1186L298,1292L377,1200Z" fill="#4e69c5" stroke="#4e69c5" stroke-width="1.51"/><path d="M271,1711L322,1843L371,1733Z" fill="#5471d5" stroke="#5471d5" stroke-width="1.51"/><path d="M299,579L302,674L375,598Z" fill="#475eab" stroke="#475eab" stroke-width="1.51"/><path d="M298,1292L298,1408L380,1337Z" fill="#4f6bcb" stroke="#4f6bcb" stroke-width="1.51"/><path d="M219,683L187,795L294,816Z" fill="#455ba9" stroke="#455ba9" stroke-width="1.51"/><path d="M201,1307L298,1408L298,1292Z" fill="#4c68c5" stroke="#4c68c5" stroke-width="1.51"/><path d="M219,683L294,816L302,674Z" fill="#465dab" stroke="#465dab" stroke-width="1.51"/><path d="M111,-173L183,-130L314,-178Z" fill="#354786" stroke="#354786" stroke-width="1.51"/><path d="M192,-53L289,65L318,-49Z" fill="#3a4e93" stroke="#3a4e93" stroke-width="1.51"/><path d="M314,-178L183,-130L318,-49Z" fill="#384c90" stroke="#384c90" stroke-width="1.51"/><path d="M183,-130L192,-53L318,-49Z" fill="#374b8d" stroke="#374b8d" stroke-width="1.51"/><path d="M195,500L299,579L319,471Z" fill="#4359a3" stroke="#4359a3" stroke-width="1.51"/><path d="M175,377L195,500L319,471Z" fill="#41559c" stroke="#41559c" stroke-width="1.51"/><path d="M187,2068L184,2147L321,2164Z" fill="#5471d4" stroke="#5471d4" stroke-width="1.51"/><path d="M271,1711L206,1850L322,1843Z" fill="#516ed2" stroke="#516ed2" stroke-width="1.51"/><path d="M206,1850L216,1958L322,1843Z" fill="#516fd2" stroke="#516fd2" stroke-width="1.51"/><path d="M201,1538L316,1600L323,1524Z" fill="#506ccd" stroke="#506ccd" stroke-width="1.51"/><path d="M298,1408L201,1538L323,1524Z" fill="#4f6acb" stroke="#4f6acb" stroke-width="1.51"/><path d="M187,2068L321,2164L326,2040Z" fill="#5574d9" stroke="#5574d9" stroke-width="1.51"/><path d="M216,1958L187,2068L326,2040Z" fill="#5371d4" stroke="#5371d4" stroke-width="1.51"/><path d="M316,235L178,252L327,386Z" fill="#3f559c" stroke="#3f559c" stroke-width="1.51"/><path d="M178,252L175,377L327,386Z" fill="#3f5399" stroke="#3f5399" stroke-width="1.51"/><path d="M175,377L319,471L327,386Z" fill="#4257a0" stroke="#4257a0" stroke-width="1.51"/><path d="M216,1958L326,2040L327,1959Z" fill="#5573d8" stroke="#5573d8" stroke-width="1.51"/><path d="M322,1843L216,1958L327,1959Z" fill="#5472d6" stroke="#5472d6" stroke-width="1.51"/><path d="M161,1629L271,1711L316,1600Z" fill="#4f6bcd" stroke="#4f6bcd" stroke-width="1.51"/><path d="M305,166L197,180L316,235Z" fill="#3d529a" stroke="#3d529a" stroke-width="1.51"/><path d="M280,877L218,882L296,991Z" fill="#4860b3" stroke="#4860b3" stroke-width="1.51"/><path d="M201,1307L188,1392L298,1408Z" fill="#4b66c2" stroke="#4b66c2" stroke-width="1.51"/><path d="M299,579L219,683L302,674Z" fill="#465ca8" stroke="#465ca8" stroke-width="1.51"/><path d="M289,65L197,180L305,166Z" fill="#3c5197" stroke="#3c5197" stroke-width="1.51"/><path d="M176,1097L272,1118L296,991Z" fill="#4962b8" stroke="#4962b8" stroke-width="1.51"/><path d="M188,1392L201,1538L298,1408Z" fill="#4c67c5" stroke="#4c67c5" stroke-width="1.51"/><path d="M288,1186L179,1219L298,1292Z" fill="#4b65c0" stroke="#4b65c0" stroke-width="1.51"/><path d="M197,180L178,252L316,235Z" fill="#3c5196" stroke="#3c5196" stroke-width="1.51"/><path d="M201,1538L161,1629L316,1600Z" fill="#4d69c7" stroke="#4d69c7" stroke-width="1.51"/><path d="M161,1629L200,1709L271,1711Z" fill="#4e69c7" stroke="#4e69c7" stroke-width="1.51"/><path d="M192,-53L170,41L289,65Z" fill="#384b8d" stroke="#384b8d" stroke-width="1.51"/><path d="M200,1709L206,1850L271,1711Z" fill="#4f6bcb" stroke="#4f6bcb" stroke-width="1.51"/><path d="M169,971L176,1097L296,991Z" fill="#475fb0" stroke="#475fb0" stroke-width="1.51"/><path d="M218,882L169,971L296,991Z" fill="#475eb0" stroke="#475eb0" stroke-width="1.51"/><path d="M179,1219L201,1307L298,1292Z" fill="#4a64bd" stroke="#4a64bd" stroke-width="1.51"/><path d="M185,579L219,683L299,579Z" fill="#4359a2" stroke="#4359a2" stroke-width="1.51"/><path d="M195,500L185,579L299,579Z" fill="#42579f" stroke="#42579f" stroke-width="1.51"/><path d="M170,41L197,180L289,65Z" fill="#3a4d90" stroke="#3a4d90" stroke-width="1.51"/><path d="M218,882L280,877L294,816Z" fill="#485fb0" stroke="#485fb0" stroke-width="1.51"/><path d="M187,795L218,882L294,816Z" fill="#465cac" stroke="#465cac" stroke-width="1.51"/><path d="M272,1118L179,1219L288,1186Z" fill="#4a64bd" stroke="#4a64bd" stroke-width="1.51"/><path d="M176,1097L179,1219L272,1118Z" fill="#4861b5" stroke="#4861b5" stroke-width="1.51"/><path d="M-128,-153L6,-137L111,-173Z" fill="#2c3967" stroke="#2c3967" stroke-width="1.51"/><path d="M170,41L63,84L197,180Z" fill="#374984" stroke="#374984" stroke-width="1.51"/><path d="M188,1392L112,1425L201,1538Z" fill="#4a63ba" stroke="#4a63ba" stroke-width="1.51"/><path d="M200,1709L87,1756L206,1850Z" fill="#4d67c1" stroke="#4d67c1" stroke-width="1.51"/><path d="M206,1850L74,1970L216,1958Z" fill="#4f6ac5" stroke="#4f6ac5" stroke-width="1.51"/><path d="M74,1970L187,2068L216,1958Z" fill="#4f6ac6" stroke="#4f6ac6" stroke-width="1.51"/><path d="M187,795L89,874L218,882Z" fill="#4458a1" stroke="#4458a1" stroke-width="1.51"/><path d="M89,874L169,971L218,882Z" fill="#4459a2" stroke="#4459a2" stroke-width="1.51"/><path d="M112,701L187,795L219,683Z" fill="#42579d" stroke="#42579d" stroke-width="1.51"/><path d="M185,579L112,701L219,683Z" fill="#41559a" stroke="#41559a" stroke-width="1.51"/><path d="M111,260L175,377L178,252Z" fill="#3b4d8b" stroke="#3b4d8b" stroke-width="1.51"/><path d="M176,1097L110,1210L179,1219Z" fill="#475dad" stroke="#475dad" stroke-width="1.51"/><path d="M175,377L61,452L195,500Z" fill="#3d4f8e" stroke="#3d4f8e" stroke-width="1.51"/><path d="M87,1756L63,1815L206,1850Z" fill="#4c64ba" stroke="#4c64ba" stroke-width="1.51"/><path d="M86,1125L110,1210L176,1097Z" fill="#455ba7" stroke="#455ba7" stroke-width="1.51"/><path d="M169,971L82,996L176,1097Z" fill="#445aa4" stroke="#445aa4" stroke-width="1.51"/><path d="M116,569L112,701L185,579Z" fill="#405293" stroke="#405293" stroke-width="1.51"/><path d="M74,1970L87,2071L187,2068Z" fill="#4e68be" stroke="#4e68be" stroke-width="1.51"/><path d="M116,569L185,579L195,500Z" fill="#405395" stroke="#405395" stroke-width="1.51"/><path d="M63,84L70,188L197,180Z" fill="#364780" stroke="#364780" stroke-width="1.51"/><path d="M82,1306L188,1392L201,1307Z" fill="#4861b5" stroke="#4861b5" stroke-width="1.51"/><path d="M179,1219L82,1306L201,1307Z" fill="#485fb2" stroke="#485fb2" stroke-width="1.51"/><path d="M112,1425L58,1529L201,1538Z" fill="#4961b4" stroke="#4961b4" stroke-width="1.51"/><path d="M63,1815L74,1970L206,1850Z" fill="#4d65bb" stroke="#4d65bb" stroke-width="1.51"/><path d="M110,1210L82,1306L179,1219Z" fill="#465cab" stroke="#465cab" stroke-width="1.51"/><path d="M103,2127L184,2147L187,2068Z" fill="#516cc8" stroke="#516cc8" stroke-width="1.51"/><path d="M111,260L178,252L197,180Z" fill="#3a4c8b" stroke="#3a4c8b" stroke-width="1.51"/><path d="M161,1629L101,1656L200,1709Z" fill="#4c65bd" stroke="#4c65bd" stroke-width="1.51"/><path d="M58,1529L161,1629L201,1538Z" fill="#4a63b8" stroke="#4a63b8" stroke-width="1.51"/><path d="M183,-130L65,-78L192,-53Z" fill="#34447f" stroke="#34447f" stroke-width="1.51"/><path d="M101,1656L87,1756L200,1709Z" fill="#4b64ba" stroke="#4b64ba" stroke-width="1.51"/><path d="M82,1306L112,1425L188,1392Z" fill="#475fb1" stroke="#475fb1" stroke-width="1.51"/><path d="M65,-78L170,41L192,-53Z" fill="#354680" stroke="#354680" stroke-width="1.51"/><path d="M70,188L111,260L197,180Z" fill="#384985" stroke="#384985" stroke-width="1.51"/><path d="M71,810L89,874L187,795Z" fill="#415497" stroke="#415497" stroke-width="1.51"/><path d="M61,452L116,569L195,500Z" fill="#3e4f8d" stroke="#3e4f8d" stroke-width="1.51"/><path d="M112,701L71,810L187,795Z" fill="#415496" stroke="#415496" stroke-width="1.51"/><path d="M58,391L61,452L175,377Z" fill="#3a4b85" stroke="#3a4b85" stroke-width="1.51"/><path d="M87,2071L103,2127L187,2068Z" fill="#4f69c2" stroke="#4f69c2" stroke-width="1.51"/><path d="M111,260L58,391L175,377Z" fill="#3a4b86" stroke="#3a4b86" stroke-width="1.51"/><path d="M82,996L86,1125L176,1097Z" fill="#4459a2" stroke="#4459a2" stroke-width="1.51"/><path d="M111,-173L65,-78L183,-130Z" fill="#32427a" stroke="#32427a" stroke-width="1.51"/><path d="M89,874L82,996L169,971Z" fill="#43579c" stroke="#43579c" stroke-width="1.51"/><path d="M65,-78L63,84L170,41Z" fill="#34447a" stroke="#34447a" stroke-width="1.51"/><path d="M58,1529L101,1656L161,1629Z" fill="#4961b4" stroke="#4961b4" stroke-width="1.51"/><path d="M-4,-52L63,84L65,-78Z" fill="#313f70" stroke="#313f70" stroke-width="1.51"/><path d="M63,1815L-18,1866L74,1970Z" fill="#4961ae" stroke="#4961ae" stroke-width="1.51"/><path d="M82,996L-4,1082L86,1125Z" fill="#415598" stroke="#415598" stroke-width="1.51"/><path d="M-24,969L82,996L89,874Z" fill="#405292" stroke="#405292" stroke-width="1.51"/><path d="M58,1529L-8,1644L101,1656Z" fill="#475daa" stroke="#475daa" stroke-width="1.51"/><path d="M-32,1219L82,1306L110,1210Z" fill="#4357a0" stroke="#4357a0" stroke-width="1.51"/><path d="M6,-137L65,-78L111,-173Z" fill="#303e70" stroke="#303e70" stroke-width="1.51"/><path d="M7,338L58,391L111,260Z" fill="#37477d" stroke="#37477d" stroke-width="1.51"/><path d="M5,796L71,810L112,701Z" fill="#3e508c" stroke="#3e508c" stroke-width="1.51"/><path d="M-22,572L-48,704L112,701Z" fill="#3a4a81" stroke="#3a4a81" stroke-width="1.51"/><path d="M-2,1501L58,1529L112,1425Z" fill="#465ca9" stroke="#465ca9" stroke-width="1.51"/><path d="M82,1306L5,1320L112,1425Z" fill="#455aa6" stroke="#455aa6" stroke-width="1.51"/><path d="M-22,572L112,701L116,569Z" fill="#3d4e87" stroke="#3d4e87" stroke-width="1.51"/><path d="M61,452L-22,572L116,569Z" fill="#3b4a81" stroke="#3b4a81" stroke-width="1.51"/><path d="M74,1970L10,2053L87,2071Z" fill="#4c64b4" stroke="#4c64b4" stroke-width="1.51"/><path d="M-26,1716L87,1756L101,1656Z" fill="#485fad" stroke="#485fad" stroke-width="1.51"/><path d="M-8,1644L-26,1716L101,1656Z" fill="#465ca8" stroke="#465ca8" stroke-width="1.51"/><path d="M86,1125L-32,1219L110,1210Z" fill="#43579d" stroke="#43579d" stroke-width="1.51"/><path d="M-48,704L5,796L112,701Z" fill="#3c4c85" stroke="#3c4c85" stroke-width="1.51"/><path d="M5,1320L-46,1448L112,1425Z" fill="#4358a2" stroke="#4358a2" stroke-width="1.51"/><path d="M-46,1448L-2,1501L112,1425Z" fill="#4359a3" stroke="#4359a3" stroke-width="1.51"/><path d="M70,188L-44,243L111,260Z" fill="#354478" stroke="#354478" stroke-width="1.51"/><path d="M-44,243L7,338L111,260Z" fill="#354377" stroke="#354377" stroke-width="1.51"/><path d="M-32,1219L5,1320L82,1306Z" fill="#42569c" stroke="#42569c" stroke-width="1.51"/><path d="M87,2071L2,2130L103,2127Z" fill="#4e65b7" stroke="#4e65b7" stroke-width="1.51"/><path d="M-27,867L-24,969L89,874Z" fill="#3d4f8b" stroke="#3d4f8b" stroke-width="1.51"/><path d="M-4,-52L-41,62L63,84Z" fill="#2f3e6e" stroke="#2f3e6e" stroke-width="1.51"/><path d="M63,84L-46,138L70,188Z" fill="#324173" stroke="#324173" stroke-width="1.51"/><path d="M-18,1866L-23,1965L74,1970Z" fill="#485eac" stroke="#485eac" stroke-width="1.51"/><path d="M-4,1082L-32,1219L86,1125Z" fill="#405396" stroke="#405396" stroke-width="1.51"/><path d="M10,2053L2,2130L87,2071Z" fill="#4c62b2" stroke="#4c62b2" stroke-width="1.51"/><path d="M71,810L-27,867L89,874Z" fill="#3f508d" stroke="#3f508d" stroke-width="1.51"/><path d="M-26,1716L63,1815L87,1756Z" fill="#485fac" stroke="#485fac" stroke-width="1.51"/><path d="M5,796L-27,867L71,810Z" fill="#3d4d88" stroke="#3d4d88" stroke-width="1.51"/><path d="M-24,969L-4,1082L82,996Z" fill="#3f5191" stroke="#3f5191" stroke-width="1.51"/><path d="M-42,458L-22,572L61,452Z" fill="#36467a" stroke="#36467a" stroke-width="1.51"/><path d="M-23,1965L10,2053L74,1970Z" fill="#4a60ae" stroke="#4a60ae" stroke-width="1.51"/><path d="M-2,1501L-8,1644L58,1529Z" fill="#445aa5" stroke="#445aa5" stroke-width="1.51"/><path d="M-46,138L-44,243L70,188Z" fill="#314071" stroke="#314071" stroke-width="1.51"/><path d="M58,391L-42,458L61,452Z" fill="#37477b" stroke="#37477b" stroke-width="1.51"/><path d="M-41,62L-46,138L63,84Z" fill="#2f3d6e" stroke="#2f3d6e" stroke-width="1.51"/><path d="M-26,1716L-18,1866L63,1815Z" fill="#465da9" stroke="#465da9" stroke-width="1.51"/><path d="M6,-137L-4,-52L65,-78Z" fill="#2e3c6c" stroke="#2e3c6c" stroke-width="1.51"/><path d="M7,338L-42,458L58,391Z" fill="#354578" stroke="#354578" stroke-width="1.51"/><path d="M-116,666L-48,704L-22,572Z" fill="#354478" stroke="#354478" stroke-width="1.51"/><path d="M-26,1716L-147,1834L-18,1866Z" fill="#4157a0" stroke="#4157a0" stroke-width="1.51"/><path d="M-131,1519L-143,1603L-8,1644Z" fill="#3d5298" stroke="#3d5298" stroke-width="1.51"/><path d="M-24,969L-118,1080L-4,1082Z" fill="#3a4c8a" stroke="#3a4c8a" stroke-width="1.51"/><path d="M-118,1080L-32,1219L-4,1082Z" fill="#3b4e8d" stroke="#3b4e8d" stroke-width="1.51"/><path d="M-131,1519L-8,1644L-2,1501Z" fill="#40559d" stroke="#40559d" stroke-width="1.51"/><path d="M-105,2024L-126,2145L2,2130Z" fill="#435aa5" stroke="#435aa5" stroke-width="1.51"/><path d="M-32,1219L-95,1303L5,1320Z" fill="#3e5295" stroke="#3e5295" stroke-width="1.51"/><path d="M-95,1303L-46,1448L5,1320Z" fill="#3e5298" stroke="#3e5298" stroke-width="1.51"/><path d="M-48,704L-92,787L5,796Z" fill="#37487f" stroke="#37487f" stroke-width="1.51"/><path d="M-105,-81L-4,-52L6,-137Z" fill="#2b3866" stroke="#2b3866" stroke-width="1.51"/><path d="M-119,396L-42,458L7,338Z" fill="#324072" stroke="#324072" stroke-width="1.51"/><path d="M-105,2024L2,2130L10,2053Z" fill="#475daa" stroke="#475daa" stroke-width="1.51"/><path d="M-23,1965L-105,2024L10,2053Z" fill="#455ca8" stroke="#455ca8" stroke-width="1.51"/><path d="M-118,1080L-148,1182L-32,1219Z" fill="#384b8a" stroke="#384b8a" stroke-width="1.51"/><path d="M-105,-81L-41,62L-4,-52Z" fill="#2b3866" stroke="#2b3866" stroke-width="1.51"/><path d="M-92,787L-27,867L5,796Z" fill="#384982" stroke="#384982" stroke-width="1.51"/><path d="M-44,243L-119,396L7,338Z" fill="#313f6f" stroke="#313f6f" stroke-width="1.51"/><path d="M-128,-153L-105,-81L6,-137Z" fill="#283461" stroke="#283461" stroke-width="1.51"/><path d="M-105,-81L-144,24L-41,62Z" fill="#283561" stroke="#283561" stroke-width="1.51"/><path d="M-27,867L-110,925L-24,969Z" fill="#384a85" stroke="#384a85" stroke-width="1.51"/><path d="M-126,1709L-147,1834L-26,1716Z" fill="#3e549c" stroke="#3e549c" stroke-width="1.51"/><path d="M-42,458L-108,473L-22,572Z" fill="#334274" stroke="#334274" stroke-width="1.51"/><path d="M-146,1020L-118,1080L-24,969Z" fill="#374884" stroke="#374884" stroke-width="1.51"/><path d="M-108,473L-114,564L-22,572Z" fill="#324172" stroke="#324172" stroke-width="1.51"/><path d="M-120,1967L-23,1965L-18,1866Z" fill="#435aa5" stroke="#435aa5" stroke-width="1.51"/><path d="M-46,1448L-131,1519L-2,1501Z" fill="#3f539a" stroke="#3f539a" stroke-width="1.51"/><path d="M-142,243L-119,396L-44,243Z" fill="#2d3b69" stroke="#2d3b69" stroke-width="1.51"/><path d="M-114,564L-116,666L-22,572Z" fill="#334274" stroke="#334274" stroke-width="1.51"/><path d="M-126,1709L-26,1716L-8,1644Z" fill="#41569f" stroke="#41569f" stroke-width="1.51"/><path d="M-143,1603L-126,1709L-8,1644Z" fill="#3e539a" stroke="#3e539a" stroke-width="1.51"/><path d="M-95,1303L-151,1448L-46,1448Z" fill="#3b4f94" stroke="#3b4f94" stroke-width="1.51"/><path d="M-46,138L-113,136L-44,243Z" fill="#2d3b6a" stroke="#2d3b6a" stroke-width="1.51"/><path d="M-147,1834L-120,1967L-18,1866Z" fill="#40559f" stroke="#40559f" stroke-width="1.51"/><path d="M-110,925L-146,1020L-24,969Z" fill="#364882" stroke="#364882" stroke-width="1.51"/><path d="M-120,1967L-105,2024L-23,1965Z" fill="#4358a2" stroke="#4358a2" stroke-width="1.51"/><path d="M-113,136L-46,138L-41,62Z" fill="#2c3a68" stroke="#2c3a68" stroke-width="1.51"/><path d="M-92,787L-110,925L-27,867Z" fill="#364780" stroke="#364780" stroke-width="1.51"/><path d="M-113,136L-142,243L-44,243Z" fill="#2b3967" stroke="#2b3967" stroke-width="1.51"/><path d="M-148,1182L-95,1303L-32,1219Z" fill="#394d8d" stroke="#394d8d" stroke-width="1.51"/><path d="M-151,1448L-131,1519L-46,1448Z" fill="#3b4f94" stroke="#3b4f94" stroke-width="1.51"/><path d="M-119,396L-108,473L-42,458Z" fill="#303e6f" stroke="#303e6f" stroke-width="1.51"/><path d="M-144,24L-113,136L-41,62Z" fill="#293763" stroke="#293763" stroke-width="1.51"/><path d="M-116,666L-92,787L-48,704Z" fill="#344479" stroke="#344479" stroke-width="1.51"/><path d="M-116,666L-110,925L-92,787Z" fill="#344479" stroke="#344479" stroke-width="1.51"/><path d="M-116,666L-146,1020L-110,925Z" fill="#33447b" stroke="#33447b" stroke-width="1.51"/><path d="M-148,1182L-151,1448L-95,1303Z" fill="#374b8c" stroke="#374b8c" stroke-width="1.51"/><path d="M-128,-153L-144,24L-105,-81Z" fill="#25325c" stroke="#25325c" stroke-width="1.51"/><path d="M-120,1967L-126,2145L-105,2024Z" fill="#40569f" stroke="#40569f" stroke-width="1.51"/><path d="M-119,396L-114,564L-108,473Z" fill="#2f3d6d" stroke="#2f3d6d" stroke-width="1.51"/><path d="M-144,24L-142,243L-113,136Z" fill="#283562" stroke="#283562" stroke-width="1.51"/><path d="M-142,243L-116,666L-114,564Z" fill="#2e3d6d" stroke="#2e3d6d" stroke-width="1.51"/><path d="M-119,396L-142,243L-114,564Z" fill="#2d3b6a" stroke="#2d3b6a" stroke-width="1.51"/><path d="M-142,243L-146,1020L-116,666Z" fill="#303f70" stroke="#303f70" stroke-width="1.51"/><path d="M-147,1834L-126,2145L-120,1967Z" fill="#3f549c" stroke="#3f549c" stroke-width="1.51"/><path d="M-146,1020L-148,1182L-118,1080Z" fill="#354683" stroke="#354683" stroke-width="1.51"/><path d="M-143,1603L-147,1834L-126,1709Z" fill="#3b5096" stroke="#3b5096" stroke-width="1.51"/><path d="M-151,1448L-143,1603L-131,1519Z" fill="#394d91" stroke="#394d91" stroke-width="1.51"/><path d="M-151,1448L-147,1834L-143,1603Z" fill="#394e93" stroke="#394e93" stroke-width="1.51"/></svg>