<svg xmlns="http://www.w3.org/2000/svg" width="300" height="85"><path d="M17,140L-32,147L108,145Z" fill="#3a97d9" stroke="#3a97d9" stroke-width="1.51"/><path d="M-32,147L-61,152L108,145Z" fill="#3d9adc" stroke="#3d9adc" stroke-width="1.51"/><path d="M108,145L-61,152L188,156Z" fill="#3b95d6" stroke="#3b95d6" stroke-width="1.51"/><path d="M188,156L-61,152L221,159Z" fill="#3b94d4" stroke="#3b94d4" stroke-width="1.51"/><path d="M136,-59L178,-53L287,-56Z" fill="#278cd4" stroke="#278cd4" stroke-width="1.51"/><path d="M79,-70L136,-59L287,-56Z" fill="#2789ce" stroke="#2789ce" stroke-width="1.51"/><path d="M266,150L221,159L330,147Z" fill="#42a7ef" stroke="#42a7ef" stroke-width="1.51"/><path d="M367,27L372,83L377,4Z" fill="#3b96d8" stroke="#3b96d8" stroke-width="1.51"/><path d="M-35,-71L79,-70L389,-68Z" fill="#2889cb" stroke="#2889cb" stroke-width="1.51"/><path d="M79,-70L287,-56L389,-68Z" fill="#2c95df" stroke="#2c95df" stroke-width="1.51"/><path d="M287,-56L311,-48L389,-68Z" fill="#399ce1" stroke="#399ce1" stroke-width="1.51"/><path d="M311,-48L377,4L389,-68Z" fill="#3d9bdd" stroke="#3d9bdd" stroke-width="1.51"/><path d="M377,4L372,83L389,-68Z" fill="#3d97d6" stroke="#3d97d6" stroke-width="1.51"/><path d="M372,83L370,137L389,-68Z" fill="#3d99dd" stroke="#3d99dd" stroke-width="1.51"/><path d="M311,93L330,147L370,137Z" fill="#43a8f0" stroke="#43a8f0" stroke-width="1.51"/><path d="M367,27L315,40L372,83Z" fill="#3797dc" stroke="#3797dc" stroke-width="1.51"/><path d="M311,93L370,137L372,83Z" fill="#3fa5ef" stroke="#3fa5ef" stroke-width="1.51"/><path d="M312,6L367,27L377,4Z" fill="#3794d5" stroke="#3794d5" stroke-width="1.51"/><path d="M311,-48L312,6L377,4Z" fill="#3595d8" stroke="#3595d8" stroke-width="1.51"/><path d="M315,40L311,93L372,83Z" fill="#359be4" stroke="#359be4" stroke-width="1.51"/><path d="M312,6L315,40L367,27Z" fill="#3290d3" stroke="#3290d3" stroke-width="1.51"/><path d="M178,-53L236,-42L287,-56Z" fill="#2990d8" stroke="#2990d8" stroke-width="1.51"/><path d="M311,-48L277,-25L312,6Z" fill="#3093d9" stroke="#3093d9" stroke-width="1.51"/><path d="M311,93L279,95L330,147Z" fill="#39a3ee" stroke="#39a3ee" stroke-width="1.51"/><path d="M279,95L266,150L330,147Z" fill="#3ca5ef" stroke="#3ca5ef" stroke-width="1.51"/><path d="M279,95L311,93L315,40Z" fill="#2f99e4" stroke="#2f99e4" stroke-width="1.51"/><path d="M261,50L279,95L315,40Z" fill="#2993de" stroke="#2993de" stroke-width="1.51"/><path d="M312,6L261,50L315,40Z" fill="#2b8fd4" stroke="#2b8fd4" stroke-width="1.51"/><path d="M287,-56L277,-25L311,-48Z" fill="#3196dd" stroke="#3196dd" stroke-width="1.51"/><path d="M277,-25L261,50L312,6Z" fill="#298dd3" stroke="#298dd3" stroke-width="1.51"/><path d="M234,-10L261,50L277,-25Z" fill="#248bd3" stroke="#248bd3" stroke-width="1.51"/><path d="M236,-42L277,-25L287,-56Z" fill="#2c93dc" stroke="#2c93dc" stroke-width="1.51"/><path d="M231,88L266,150L279,95Z" fill="#2e9eec" stroke="#2e9eec" stroke-width="1.51"/><path d="M261,50L231,88L279,95Z" fill="#2495e3" stroke="#2495e3" stroke-width="1.51"/><path d="M234,-10L213,26L261,50Z" fill="#2187cd" stroke="#2187cd" stroke-width="1.51"/><path d="M236,-42L234,-10L277,-25Z" fill="#278fd7" stroke="#278fd7" stroke-width="1.51"/><path d="M231,88L221,159L266,150Z" fill="#359fea" stroke="#359fea" stroke-width="1.51"/><path d="M213,26L231,88L261,50Z" fill="#208cd6" stroke="#208cd6" stroke-width="1.51"/><path d="M213,26L172,40L231,88Z" fill="#1e87d0" stroke="#1e87d0" stroke-width="1.51"/><path d="M172,40L163,79L231,88Z" fill="#1e89d3" stroke="#1e89d3" stroke-width="1.51"/><path d="M188,156L221,159L231,88Z" fill="#359ce5" stroke="#359ce5" stroke-width="1.51"/><path d="M163,79L188,156L231,88Z" fill="#2894df" stroke="#2894df" stroke-width="1.51"/><path d="M178,-53L171,0L234,-10Z" fill="#2386cb" stroke="#2386cb" stroke-width="1.51"/><path d="M178,-53L234,-10L236,-42Z" fill="#268bd2" stroke="#268bd2" stroke-width="1.51"/><path d="M171,0L213,26L234,-10Z" fill="#2084c9" stroke="#2084c9" stroke-width="1.51"/><path d="M171,0L172,40L213,26Z" fill="#1d7fc3" stroke="#1d7fc3" stroke-width="1.51"/><path d="M128,-11L171,0L178,-53Z" fill="#2282c5" stroke="#2282c5" stroke-width="1.51"/><path d="M163,79L108,145L188,156Z" fill="#3093d9" stroke="#3093d9" stroke-width="1.51"/><path d="M123,77L108,145L163,79Z" fill="#248cd4" stroke="#248cd4" stroke-width="1.51"/><path d="M136,-59L128,-11L178,-53Z" fill="#2584c6" stroke="#2584c6" stroke-width="1.51"/><path d="M123,77L163,79L172,40Z" fill="#1e84cb" stroke="#1e84cb" stroke-width="1.51"/><path d="M112,57L123,77L172,40Z" fill="#1d80c5" stroke="#1d80c5" stroke-width="1.51"/><path d="M171,0L128,-11L172,40Z" fill="#1f7dbf" stroke="#1f7dbf" stroke-width="1.51"/><path d="M128,-11L112,57L172,40Z" fill="#1e7bbb" stroke="#1e7bbb" stroke-width="1.51"/><path d="M67,130L17,140L108,145Z" fill="#3694d7" stroke="#3694d7" stroke-width="1.51"/><path d="M80,82L108,145L123,77Z" fill="#258bd1" stroke="#258bd1" stroke-width="1.51"/><path d="M83,51L112,57L128,-11Z" fill="#1f7ab9" stroke="#1f7ab9" stroke-width="1.51"/><path d="M79,-70L69,-20L128,-11Z" fill="#2581c1" stroke="#2581c1" stroke-width="1.51"/><path d="M79,-70L128,-11L136,-59Z" fill="#2682c2" stroke="#2682c2" stroke-width="1.51"/><path d="M80,82L67,130L108,145Z" fill="#2d8fd4" stroke="#2d8fd4" stroke-width="1.51"/><path d="M69,-20L83,51L128,-11Z" fill="#217bba" stroke="#217bba" stroke-width="1.51"/><path d="M112,57L80,82L123,77Z" fill="#2083c7" stroke="#2083c7" stroke-width="1.51"/><path d="M83,51L80,82L112,57Z" fill="#1f81c5" stroke="#1f81c5" stroke-width="1.51"/><path d="M32,-19L28,32L69,-20Z" fill="#247fbf" stroke="#247fbf" stroke-width="1.51"/><path d="M-35,-71L32,-45L79,-70Z" fill="#2b8acb" stroke="#2b8acb" stroke-width="1.51"/><path d="M32,-45L69,-20L79,-70Z" fill="#2884c5" stroke="#2884c5" stroke-width="1.51"/><path d="M34,105L67,130L80,82Z" fill="#298ed5" stroke="#298ed5" stroke-width="1.51"/><path d="M28,32L80,82L83,51Z" fill="#1f81c4" stroke="#1f81c4" stroke-width="1.51"/><path d="M69,-20L28,32L83,51Z" fill="#217bba" stroke="#217bba" stroke-width="1.51"/><path d="M28,32L34,105L80,82Z" fill="#2286cc" stroke="#2286cc" stroke-width="1.51"/><path d="M32,-45L32,-19L69,-20Z" fill="#2683c3" stroke="#2683c3" stroke-width="1.51"/><path d="M34,105L17,140L67,130Z" fill="#3293d8" stroke="#3293d8" stroke-width="1.51"/><path d="M-24,-5L28,32L32,-19Z" fill="#2581c1" stroke="#2581c1" stroke-width="1.51"/><path d="M-24,-5L32,-19L32,-45Z" fill="#2884c5" stroke="#2884c5" stroke-width="1.51"/><path d="M28,32L-9,89L34,105Z" fill="#2489d0" stroke="#2489d0" stroke-width="1.51"/><path d="M-9,89L17,140L34,105Z" fill="#2e93d9" stroke="#2e93d9" stroke-width="1.51"/><path d="M-37,33L-9,89L28,32Z" fill="#2485ca" stroke="#2485ca" stroke-width="1.51"/><path d="M-35,-71L-24,-5L32,-45Z" fill="#2b89ca" stroke="#2b89ca" stroke-width="1.51"/><path d="M-24,-5L-37,33L28,32Z" fill="#2581c1" stroke="#2581c1" stroke-width="1.51"/><path d="M-9,89L-32,147L17,140Z" fill="#3597dc" stroke="#3597dc" stroke-width="1.51"/><path d="M-35,-71L-71,-58L-24,-5Z" fill="#2e8ccf" stroke="#2e8ccf" stroke-width="1.51"/><path d="M-64,78L-32,147L-9,89Z" fill="#2f95dd" stroke="#2f95dd" stroke-width="1.51"/><path d="M-37,33L-64,78L-9,89Z" fill="#278bd2" stroke="#278bd2" stroke-width="1.51"/><path d="M-64,78L-61,152L-32,147Z" fill="#389be1" stroke="#389be1" stroke-width="1.51"/><path d="M-93,8L-37,33L-24,-5Z" fill="#2885c6" stroke="#2885c6" stroke-width="1.51"/><path d="M-71,-58L-93,8L-24,-5Z" fill="#2c8acc" stroke="#2c8acc" stroke-width="1.51"/><path d="M-78,56L-64,78L-37,33Z" fill="#288ad0" stroke="#288ad0" stroke-width="1.51"/><path d="M-93,8L-78,56L-37,33Z" fill="#2887c8" stroke="#2887c8" stroke-width="1.51"/><path d="M-78,56L-93,8L-61,152Z" fill="#2a90d8" stroke="#2a90d8" stroke-width="1.51"/><path d="M-64,78L-78,56L-61,152Z" fill="#2d97e0" stroke="#2d97e0" stroke-width="1.51"/></svg>